M48
METRIC,TZ
T01C.3
T02C.71
T03C.8
T04C.8
;LEADER: 12 
;HEADER: 
;CODE  : ASCII 
;FILE  : BAROTECH-1-2.drl for  ... layers TOP and BOTTOM
;DESIGN: BAROTECH.brd
;T01 Holesize 1. = 0.300000 Tolerance = +0.000000/-0.000000 PLATED MM Quantity = 115
;T02 Holesize 2. = 0.710000 Tolerance = +0.000000/-0.000000 PLATED MM Quantity = 10
;T03 Holesize 3. = 0.800000 Tolerance = +0.000000/-0.000000 PLATED MM Quantity = 2
%
G90
T01
X-5375Y-24025
X-5400Y-25502
X-18050Y-23550
X-2550Y-24100
X14204Y-23954
X-7400Y1500
X-1200Y-2800
X-2300Y-3200
X825Y-2800
X-1800Y-14700
X-3000Y-14700
X-23385Y13985
X-22200Y13985
X-15585Y13985
X-15585Y12565
X-5322Y2778
X-1650Y4350
X-6650Y-22950
X-8150Y-22950
X2950Y8700
X4150Y8050
X19200Y-6050
X12675Y19025
X8650Y19025
X-9842Y1842
X-10850Y5650
X3950Y-9100
X1650Y-9100
X2650Y-9100
X-17950Y-22450
X-16692Y-20438
X-16185Y-19885
X-12715Y-19885
X-12800Y-18900
X10308Y-6342
X14342Y-6342
X12350Y-7550
X4800Y-7350
X8450Y-6890
X8142Y-6192
X18650Y2800
X18650Y4300
X18550Y6350
X17592Y-1392
X18702Y750
X5175Y-8475
X9975Y-10225
X10650Y20400
X9042Y24842
X9042Y21208
X10250Y23050
X-3228Y-348
X-2028Y-348
X-828Y-348
X-3228Y802
X-2028Y802
X-828Y802
X-3228Y1952
X-2028Y1952
X-828Y1952
X2300Y14300
X1350Y14350
X708Y25100
X-600Y23050
X708Y21000
X-6950Y19900
X-17550Y22650
X-17100Y17200
X1650Y10350
X-400Y10300
X600Y10500
X-1650Y10250
X-2950Y10250
X-4100Y10200
X-12242Y9108
X-13500Y11050
X-12800Y1400
X-15800Y1900
X-15800Y2650
X-14200Y3456
X-13450Y3424
X-14950Y3400
X-17650Y6800
X-16292Y4750
X-18300Y5250
X-20358Y3842
X10400Y5700
X10550Y6500
X-2550Y-22000
X-2500Y-23050
X4300Y-15892
X250Y-15892
X-12000Y-16950
X22050Y-20500
X14200Y-22700
X14100Y-21450
X15408Y-20250
X15408Y-16100
X-2450Y-20853
X-2500Y-19350
X-2450Y-18000
X-5650Y-9100
X-4450Y-9000
X-6800Y-9000
X-2000Y-9150
X-600Y-9150
X-3100Y-9050
X-20250Y-50
X-20250Y-2100
X10350Y-4300
X10350Y-2300
X22900Y20200
X22900Y15450
X24050Y-21950
X24050Y-20500
T02
X-17300Y-4200
X-16030Y-4200
X-17300Y-5470
X-16030Y-5470
X-17300Y-6740
X-16030Y-6740
X-17300Y-8010
X-16030Y-8010
X-17300Y-9280
X-16030Y-9280
T03
X10400Y-22750
X8400Y-22750
M30
