M48
METRIC,TZ
T01C.0001
T02C.35
;EXTENTS: -50.000 -50.000 50.000  50.000  
;LEADER: 12 
;HEADER: 
;CODE  : ASCII 
;FILE  : C:/Users/valen/Desktop/CONSEGNA/Allegro/BAROTECH_1-2.rou for board C:/Users/valen/Desktop/CONSEGNA/Allegro/#Taaaaaq09400.tmp, layers TOP to BOTTOM
%
G90
F1
M16
T01
M16
G00X-9950Y23650
M15
G01X-9950Y22150
M16
G00X-8800Y21575
M15
G01X-9450Y21575
M16
G00X-8800Y20675
M15
G01X-9450Y20675
M16
G00X-8800Y20675
M15
G03X-8800Y21575A450
M16
G00X-9950Y22150
M15
G01X-9450Y21575
M16
G00X-9950Y20050
M15
G01X-9950Y17450
M16
G00X-9950Y20050
M15
G01X-9450Y20675
M16
G00X-9950Y13850
M15
G01X-9950Y15350
M16
G00X-8800Y15925
M15
G01X-9450Y15925
M16
G00X-8800Y16825
M15
G01X-9450Y16825
M16
G00X-8800Y15925
M15
G03X-8800Y16825A450
M16
G00X-9950Y15350
M15
G01X-9450Y15925
M16
G00X-9950Y17450
M15
G01X-9450Y16825
M16
T01
M16
G00X-9150Y23050
G41
M15
G01X-9150Y22350
G01X-7850Y22350
G01X-7850Y23050
G01X-9150Y23050
M16
G00X-9150Y15150
G41
M15
G01X-9150Y14450
G01X-7850Y14450
G01X-7850Y15150
G01X-9150Y15150
M16
G40
M30
