G04 ================== begin FILE IDENTIFICATION RECORD ==================*
G04 Layout Name:  C:/Users/valen/Desktop/CONSEGNA/Allegro/BAROTECH.brd*
G04 Film Name:    PM_TOP*
G04 File Format:  Gerber RS274X*
G04 File Origin:  Cadence Allegro 17.2-S081*
G04 Origin Date:  Wed Jan 24 20:09:21 2024*
G04 *
G04 Layer:  BOARD GEOMETRY/DESIGN_OUTLINE*
G04 Layer:  VIA CLASS/PASTEMASK_TOP*
G04 Layer:  PIN/PASTEMASK_TOP*
G04 Layer:  PACKAGE GEOMETRY/PASTEMASK_TOP*
G04 *
G04 Offset:    (0.0000 0.0000)*
G04 Mirror:    No*
G04 Mode:      Positive*
G04 Rotation:  0*
G04 FullContactRelief:  No*
G04 UndefLineWidth:     0.0100*
G04 ================== end FILE IDENTIFICATION RECORD ====================*
%FSLAX25Y25*MOMM*%
%IR0*IPPOS*OFA0.00000B0.00000*MIA0B0*SFA1.00000B1.00000*%
%AMMACRO10*
4,1,40,.1349,.3462,
.1349,-.3462,
.134393,-.352064,
.132875,-.357751,
.130392,-.363088,
.127021,-.367913,
.122863,-.372079,
.118044,-.37546,
.112712,-.377953,
.107028,-.379482,
.1013,-.38,
-.1013,-.38,
-.107161,-.379458,
-.112839,-.377906,
-.118161,-.375392,
-.122966,-.371992,
-.127107,-.367809,
-.13046,-.362971,
-.132921,-.357624,
-.134416,-.351931,
-.1349,-.3462,
-.1349,.3462,
-.134393,.352064,
-.132875,.357751,
-.130392,.363088,
-.127021,.367913,
-.122863,.372079,
-.118044,.37546,
-.112712,.377953,
-.107028,.379482,
-.1013,.38,
.1013,.38,
.107161,.379458,
.112839,.377906,
.118161,.375392,
.122966,.371992,
.127107,.367809,
.13046,.362971,
.132921,.357624,
.134416,.351931,
.1349,.3462,
0.0*
%
%ADD10MACRO10*%
%ADD28R,1.33X.4*%
%ADD36R,1.35X.7*%
%ADD40R,.25X1.35*%
%ADD13R,1.25X.85*%
%AMMACRO24*
4,1,44,.125,.2499,
.125,-.2499,
.124286,-.25856,
.12208,-.266964,
.118448,-.274858,
.1135,-.282001,
.107387,-.288176,
.100294,-.293196,
.092438,-.296908,
.084056,-.299199,
.075404,-.3,
.0749,-.3,
-.0749,-.3,
-.08356,-.299286,
-.091964,-.29708,
-.099858,-.293448,
-.107001,-.2885,
-.113176,-.282387,
-.118196,-.275294,
-.121908,-.267438,
-.124199,-.259056,
-.125,-.250404,
-.125,-.2499,
-.125,.2499,
-.124286,.25856,
-.12208,.266964,
-.118448,.274858,
-.1135,.282001,
-.107387,.288176,
-.100294,.293196,
-.092438,.296908,
-.084056,.299199,
-.075404,.3,
-.0749,.3,
.0749,.3,
.08356,.299286,
.091964,.29708,
.099858,.293448,
.107001,.2885,
.113176,.282387,
.118196,.275294,
.121908,.267438,
.124199,.259056,
.125,.250404,
.125,.2499,
0.0*
%
%ADD24MACRO24*%
%AMMACRO30*
4,1,40,.2751,.4826,
.2751,-.4826,
.27297,-.506495,
.266723,-.529657,
.256548,-.551383,
.242756,-.571011,
.225765,-.587947,
.206091,-.601675,
.184332,-.611777,
.16115,-.617948,
.1374,-.62,
-.1374,-.62,
-.1613,-.617922,
-.184475,-.611725,
-.206223,-.601599,
-.225882,-.587849,
-.242854,-.570895,
-.256625,-.551251,
-.266775,-.529514,
-.272996,-.506345,
-.2751,-.4826,
-.2751,.4826,
-.27297,.506495,
-.266723,.529657,
-.256548,.551383,
-.242756,.571011,
-.225765,.587947,
-.206091,.601675,
-.184332,.611777,
-.16115,.617948,
-.1374,.62,
.1374,.62,
.1613,.617922,
.184475,.611725,
.206223,.601599,
.225882,.587849,
.242854,.570895,
.256625,.551251,
.266775,.529514,
.272996,.506345,
.2751,.4826,
0.0*
%
%ADD30MACRO30*%
%ADD34R,1.25X1.*%
%ADD16R,.225X.2*%
%ADD14C,1.01*%
%ADD41R,1.35X2.05*%
%ADD25R,3.4001X3.401*%
%ADD17R,.2X.225*%
%ADD39R,2.67X1.11*%
%ADD37R,.5X.35*%
%ADD33R,1.45X1.35*%
%ADD27R,2.05X1.425*%
%ADD12R,2.67X1.04*%
%ADD19R,1.04X2.67*%
%ADD23R,.6X.65*%
%ADD15R,1.01X1.01*%
%AMMACRO26*
4,1,44,-.2499,.125,
.2499,.125,
.25856,.124286,
.266964,.12208,
.274858,.118448,
.282001,.1135,
.288176,.107387,
.293196,.100294,
.296908,.092438,
.299199,.084056,
.3,.075404,
.3,.0749,
.3,-.0749,
.299286,-.08356,
.29708,-.091964,
.293448,-.099858,
.2885,-.107001,
.282387,-.113176,
.275294,-.118196,
.267438,-.121908,
.259056,-.124199,
.250404,-.125,
.2499,-.125,
-.2499,-.125,
-.25856,-.124286,
-.266964,-.12208,
-.274858,-.118448,
-.282001,-.1135,
-.288176,-.107387,
-.293196,-.100294,
-.296908,-.092438,
-.299199,-.084056,
-.3,-.075404,
-.3,-.0749,
-.3,.0749,
-.299286,.08356,
-.29708,.091964,
-.293448,.099858,
-.2885,.107001,
-.282387,.113176,
-.275294,.118196,
-.267438,.121908,
-.259056,.124199,
-.250404,.125,
-.2499,.125,
0.0*
%
%ADD26MACRO26*%
%ADD20R,1.34X2.67*%
%ADD18R,2.76X1.27*%
%ADD38R,.65X.45*%
%ADD29R,1.36X1.86*%
%ADD22R,1.85X1.325*%
%ADD11R,1.27X2.76*%
%ADD35R,.49X.55*%
%ADD31C,1.258*%
%ADD21O,2.366X1.158*%
%ADD32R,1.258X1.258*%
%ADD42C,.01*%
G75*
%LPD*%
G75*
G36*
G01X-210000Y95000D02*
Y244000D01*
X-359000D01*
Y95000D01*
X-210000D01*
G37*
G36*
G01X-41000D02*
Y244000D01*
X-190000D01*
Y95000D01*
X-41000D01*
G37*
G36*
G01X-210000Y-74000D02*
Y75000D01*
X-359000D01*
Y-74000D01*
X-210000D01*
G37*
G36*
G01X-41000D02*
Y75000D01*
X-190000D01*
Y-74000D01*
X-41000D01*
G37*
G54D10*
X-1420000Y-1988500D03*
X-1470000D03*
X-1520000D03*
Y-1791500D03*
X-1470000D03*
X-1420000D03*
X-1370000Y-1988500D03*
Y-1791500D03*
G54D11*
X-1669200Y-2245000D03*
X-1360800D03*
X-1320800Y680000D03*
X-1629200D03*
X-984200Y375000D03*
X-915800Y1105000D03*
X-1224200D03*
X-675800Y375000D03*
X379200Y2305000D03*
X70800D03*
X595800D03*
X904200D03*
X1545800Y-2270000D03*
X1540800Y-1825000D03*
X1525800Y-395000D03*
X1425800Y430000D03*
X1450800Y65000D03*
X1854200Y-2270000D03*
X1849200Y-1825000D03*
X1834200Y-395000D03*
X1734200Y430000D03*
X1759200Y65000D03*
G54D20*
X-951500Y730000D03*
X-678500D03*
G54D21*
X-850000Y1480000D03*
Y2270000D03*
G54D12*
X-1630000Y-1566500D03*
Y-1263500D03*
X-750000Y-1566500D03*
X-1230000Y-1571500D03*
X-750000Y-1263500D03*
X-1230000Y-1268500D03*
X1055000Y873500D03*
Y1176500D03*
X1415000Y1153500D03*
Y1456500D03*
G54D30*
X325000Y1554000D03*
X230000D03*
X135000D03*
Y1786000D03*
X325000D03*
G54D31*
X840000Y-2275000D03*
G54D22*
X-850000Y1781250D03*
Y1968750D03*
G54D13*
X-1445000Y-1890000D03*
G54D40*
X2205000Y-2345000D03*
Y-1905000D03*
X2405000Y-2345000D03*
X2355000D03*
X2305000D03*
X2255000D03*
Y-1905000D03*
X2305000D03*
X2355000D03*
X2405000D03*
G54D32*
X1040000Y-2275000D03*
G54D23*
X-247500Y-1260000D03*
X-112500D03*
G54D41*
X2290000Y1335000D03*
X1840000D03*
X2290000Y2245000D03*
X1840000D03*
G54D14*
X-1603000Y-928000D03*
X-1730000D03*
X-1603000Y-801000D03*
X-1730000D03*
X-1603000Y-674000D03*
X-1730000D03*
X-1603000Y-547000D03*
X-1730000D03*
X-1603000Y-420000D03*
X935000Y-1480000D03*
Y-1780000D03*
G54D42*
G01X-2605000Y2675000D02*
X2690000D01*
Y-2680000D01*
X-2605000D01*
Y2675000D01*
G54D15*
X-1730000Y-420000D03*
G54D33*
X645000Y-1460000D03*
Y-1800000D03*
X1225000Y-1460000D03*
Y-1800000D03*
G54D24*
X-175000Y-155000D03*
X-225000D03*
X-275000D03*
X-325000D03*
X-375000D03*
Y325000D03*
X-325000D03*
X-275000D03*
X-225000D03*
X-175000D03*
X-25000Y-155000D03*
X-75000D03*
X-125000D03*
X-25000Y325000D03*
X-125000D03*
X-75000D03*
G54D25*
X-200000Y85000D03*
G54D16*
X-1511200Y140000D03*
Y190000D03*
Y240000D03*
X-1358800D03*
Y190000D03*
Y140000D03*
G54D34*
X640000Y-847500D03*
X870000D03*
Y-1022500D03*
X640000D03*
G54D35*
X953200Y-320000D03*
X866800D03*
G54D26*
X-440000Y-90000D03*
Y-40000D03*
Y10000D03*
Y60000D03*
Y110000D03*
Y160000D03*
Y210000D03*
Y260000D03*
X40000D03*
Y210000D03*
Y160000D03*
Y110000D03*
Y60000D03*
Y10000D03*
Y-40000D03*
Y-90000D03*
G54D17*
X-1460000Y266300D03*
X-1410000D03*
Y113700D03*
X-1460000D03*
G54D18*
X-1830000Y75800D03*
Y384200D03*
X-565000Y-759200D03*
X-200000D03*
X-565000Y-450800D03*
X-200000D03*
X-295000Y894200D03*
Y585800D03*
X225000Y-1589200D03*
X265000Y-784200D03*
X225000Y-1280800D03*
X265000Y-475800D03*
X60000Y585800D03*
Y894200D03*
X610000Y-310800D03*
Y-619200D03*
X1235000Y-325800D03*
Y-634200D03*
X2305000Y-1325800D03*
Y-1634200D03*
G54D27*
X-620000Y1628750D03*
Y2121250D03*
G54D36*
X1030000Y-7500D03*
Y137500D03*
G54D19*
X-1558500Y1060000D03*
X-1861500D03*
X-1591500Y1720000D03*
X-1621500Y2265000D03*
X-1296500Y-575000D03*
X-993500D03*
X-988500Y-215000D03*
X-1291500D03*
X-1288500Y1720000D03*
X-1318500Y2265000D03*
X-121500Y-1935000D03*
X181500D03*
X186500Y-2305000D03*
X-116500D03*
X448500Y590000D03*
Y1020000D03*
X751500Y590000D03*
Y1020000D03*
X1458500Y840000D03*
X1761500D03*
G54D37*
X997500Y482500D03*
Y627500D03*
X1132500Y482500D03*
Y627500D03*
G54D28*
X-584000Y2005000D03*
Y1940000D03*
Y1875000D03*
Y1810000D03*
Y1745000D03*
G54D29*
X294500Y-40000D03*
X595500D03*
G54D38*
X990000Y555000D03*
X1140000D03*
G54D39*
X1065000Y1607500D03*
Y1902500D03*
M02*
