G04 ================== begin FILE IDENTIFICATION RECORD ==================*
G04 Layout Name:  C:/Users/valen/Desktop/CONSEGNA/Allegro/BAROTECH.brd*
G04 Film Name:    SM_BOT*
G04 File Format:  Gerber RS274X*
G04 File Origin:  Cadence Allegro 17.2-S081*
G04 Origin Date:  Wed Jan 24 20:09:21 2024*
G04 *
G04 Layer:  BOARD GEOMETRY/DESIGN_OUTLINE*
G04 Layer:  VIA CLASS/SOLDERMASK_BOTTOM*
G04 Layer:  PIN/SOLDERMASK_BOTTOM*
G04 Layer:  PACKAGE GEOMETRY/SOLDERMASK_BOTTOM*
G04 Layer:  BOARD GEOMETRY/SOLDERMASK_BOTTOM*
G04 *
G04 Offset:    (0.0000 0.0000)*
G04 Mirror:    No*
G04 Mode:      Positive*
G04 Rotation:  0*
G04 FullContactRelief:  No*
G04 UndefLineWidth:     0.0100*
G04 ================== end FILE IDENTIFICATION RECORD ====================*
%FSLAX25Y25*MOMM*%
%IR0*IPPOS*OFA0.00000B0.00000*MIA0B0*SFA1.00000B1.00000*%
%ADD10C,.6*%
%ADD11C,1.16*%
%ADD13O,2.516X1.308*%
%ADD14C,1.408*%
%ADD12R,1.16X1.16*%
%ADD15R,1.308X1.308*%
%ADD16C,.01*%
G75*
%LPD*%
G75*
G54D10*
X-2025000Y-210000D03*
Y-5000D03*
X-2035800Y384200D03*
X-2220000Y1398500D03*
X-2338500D03*
X-1618500Y-1988500D03*
X-1669200Y-2043780D03*
X-1795000Y-2245000D03*
X-1805000Y-2355000D03*
X-1495000Y340000D03*
X-1419980Y345650D03*
X-1580000Y265000D03*
Y190000D03*
X-1830000Y525000D03*
X-1629200Y475000D03*
X-1765000Y680000D03*
X-1558500Y1256500D03*
Y1398500D03*
X-1710000Y1720000D03*
X-1755000Y2265000D03*
X-1271500Y-1988500D03*
X-815000Y-2295000D03*
X-1200000Y-1695000D03*
X-1280000Y-1890000D03*
X-1345040Y342410D03*
X-1280000Y140000D03*
X-984200Y184200D03*
X-1224200Y910800D03*
X-1085000Y565000D03*
X-1350000Y1105000D03*
X-245000Y-2085290D03*
X-250000Y-2305000D03*
X-255000Y-2200000D03*
Y-2410000D03*
X-665000Y-2295000D03*
X-540000Y-2550200D03*
X-537500Y-2402500D03*
X-245000Y-1800000D03*
X-250000Y-1935000D03*
X-300000Y-1470000D03*
X-180000D03*
X-310000Y-905000D03*
X-200000Y-915000D03*
X-680000Y-900000D03*
X-445000D03*
X-565000Y-910000D03*
X-230000Y-320000D03*
X-202790Y195150D03*
X-322790D03*
X-202790Y80150D03*
X-322790D03*
X-202790Y-34850D03*
X-322790D03*
X-165000Y435000D03*
X-532160Y277830D03*
X-740000Y150000D03*
X-410000Y1020000D03*
X-295000Y1025000D03*
X-165000D03*
X-695000Y1990000D03*
X25000Y-1589200D03*
X430000D03*
X-60000Y-915000D03*
X265000Y-910000D03*
X165000D03*
X395000D03*
X82500Y-280000D03*
X-120000D03*
X-82790Y195150D03*
Y80150D03*
Y-34850D03*
X-40000Y1030000D03*
X165000Y1035000D03*
X415000Y805000D03*
X295000Y870000D03*
X60000Y1050000D03*
X135000Y1435000D03*
X230000Y1430000D03*
X70800Y2100000D03*
X-60000Y2305000D03*
X70800Y2510000D03*
X997500Y-1022500D03*
X517500Y-847500D03*
X1035000Y-230000D03*
Y-430000D03*
X814200Y-619200D03*
X845000Y-689030D03*
X480000Y-735000D03*
X1030800Y-634200D03*
X1040000Y570000D03*
X904200Y2120800D03*
X865000Y1902500D03*
X1025000Y2305000D03*
X904200Y2484200D03*
X1540800Y-2025000D03*
X1410000Y-2145000D03*
X1420000Y-2270000D03*
X1420400Y-2395400D03*
X1540800Y-1610000D03*
X1235000Y-755000D03*
X1434200Y-634200D03*
X1055000Y650000D03*
X1065000Y2040000D03*
X1267500Y1902500D03*
X2205000Y-2050000D03*
X1920000Y-605000D03*
X1870200Y74990D03*
X1759200Y-139200D03*
X1865000Y430000D03*
Y280000D03*
X1855000Y635000D03*
X2405000Y-2050000D03*
Y-2195000D03*
X2290000Y1545000D03*
Y2020000D03*
G54D11*
X-1603000Y-928000D03*
X-1730000D03*
X-1603000Y-801000D03*
X-1730000D03*
X-1603000Y-674000D03*
X-1730000D03*
X-1603000Y-547000D03*
X-1730000D03*
X-1603000Y-420000D03*
X935000Y-1480000D03*
Y-1780000D03*
G54D12*
X-1730000Y-420000D03*
G54D13*
X-850000Y1480000D03*
Y2270000D03*
G54D14*
X840000Y-2275000D03*
G54D15*
X1040000D03*
G54D16*
G01X-2605000Y2675000D02*
X2690000D01*
Y-2680000D01*
X-2605000D01*
Y2675000D01*
M02*
