G04 ================== begin FILE IDENTIFICATION RECORD ==================*
G04 Layout Name:  C:/Users/valen/Desktop/CONSEGNA/Allegro/BAROTECH.brd*
G04 Film Name:    SM_TOP*
G04 File Format:  Gerber RS274X*
G04 File Origin:  Cadence Allegro 17.2-S081*
G04 Origin Date:  Wed Jan 24 20:09:21 2024*
G04 *
G04 Layer:  BOARD GEOMETRY/DESIGN_OUTLINE*
G04 Layer:  VIA CLASS/SOLDERMASK_TOP*
G04 Layer:  PIN/SOLDERMASK_TOP*
G04 Layer:  PACKAGE GEOMETRY/SOLDERMASK_TOP*
G04 Layer:  BOARD GEOMETRY/SOLDERMASK_TOP*
G04 *
G04 Offset:    (0.0000 0.0000)*
G04 Mirror:    No*
G04 Mode:      Positive*
G04 Rotation:  0*
G04 FullContactRelief:  No*
G04 UndefLineWidth:     0.0100*
G04 ================== end FILE IDENTIFICATION RECORD ====================*
%FSLAX25Y25*MOMM*%
%IR0*IPPOS*OFA0.00000B0.00000*MIA0B0*SFA1.00000B1.00000*%
%AMMACRO11*
4,1,40,.1349,.3462,
.1349,-.3462,
.134393,-.352064,
.132875,-.357751,
.130392,-.363088,
.127021,-.367913,
.122863,-.372079,
.118044,-.37546,
.112712,-.377953,
.107028,-.379482,
.1013,-.38,
-.1013,-.38,
-.107161,-.379458,
-.112839,-.377906,
-.118161,-.375392,
-.122966,-.371992,
-.127107,-.367809,
-.13046,-.362971,
-.132921,-.357624,
-.134416,-.351931,
-.1349,-.3462,
-.1349,.3462,
-.134393,.352064,
-.132875,.357751,
-.130392,.363088,
-.127021,.367913,
-.122863,.372079,
-.118044,.37546,
-.112712,.377953,
-.107028,.379482,
-.1013,.38,
.1013,.38,
.107161,.379458,
.112839,.377906,
.118161,.375392,
.122966,.371992,
.127107,.367809,
.13046,.362971,
.132921,.357624,
.134416,.351931,
.1349,.3462,
0.0*
%
%ADD11MACRO11*%
%ADD41R,.4X1.5*%
%ADD37R,1.5X.85*%
%ADD10C,.6*%
%ADD29R,1.48X.55*%
%AMMACRO31*
4,1,40,.2751,.4826,
.2751,-.4826,
.27297,-.506495,
.266723,-.529657,
.256548,-.551383,
.242756,-.571011,
.225765,-.587947,
.206091,-.601675,
.184332,-.611777,
.16115,-.617948,
.1374,-.62,
-.1374,-.62,
-.1613,-.617922,
-.184475,-.611725,
-.206223,-.601599,
-.225882,-.587849,
-.242854,-.570895,
-.256625,-.551251,
-.266775,-.529514,
-.272996,-.506345,
-.2751,-.4826,
-.2751,.4826,
-.27297,.506495,
-.266723,.529657,
-.256548,.551383,
-.242756,.571011,
-.225765,.587947,
-.206091,.601675,
-.184332,.611777,
-.16115,.617948,
-.1374,.62,
.1374,.62,
.1613,.617922,
.184475,.611725,
.206223,.601599,
.225882,.587849,
.242854,.570895,
.256625,.551251,
.266775,.529514,
.272996,.506345,
.2751,.4826,
0.0*
%
%ADD31MACRO31*%
%ADD14R,1.4X1.*%
%ADD42R,1.5X2.2*%
%ADD30R,1.51X2.01*%
%ADD35R,1.4X1.15*%
%ADD34R,1.6X1.5*%
%ADD19R,2.91X1.42*%
%ADD39R,.8X.6*%
%ADD23R,2.X1.475*%
%ADD12R,1.42X2.91*%
%ADD40R,2.82X1.26*%
%ADD38R,.65X.5*%
%ADD15C,1.16*%
%ADD13R,2.72X1.19*%
%ADD36R,.64X.7*%
%ADD28R,2.2X1.575*%
%ADD20R,1.19X2.72*%
%ADD22O,2.516X1.308*%
%ADD24R,.75X.8*%
%ADD32C,1.408*%
%ADD21R,1.49X2.82*%
%ADD17R,.375X.35*%
%ADD26R,3.5501X3.5501*%
%ADD18R,.35X.375*%
%ADD16R,1.16X1.16*%
%ADD33R,1.408X1.408*%
%ADD43C,.01*%
G75*
%LPD*%
G75*
G54D10*
X-2025000Y-210000D03*
Y-5000D03*
X-2035800Y384200D03*
X-2220000Y1398500D03*
X-2338500D03*
X-1618500Y-1988500D03*
X-1669200Y-2043780D03*
X-1795000Y-2245000D03*
X-1805000Y-2355000D03*
X-1495000Y340000D03*
X-1419980Y345650D03*
X-1580000Y265000D03*
Y190000D03*
X-1830000Y525000D03*
X-1629200Y475000D03*
X-1765000Y680000D03*
X-1558500Y1256500D03*
Y1398500D03*
X-1710000Y1720000D03*
X-1755000Y2265000D03*
X-1271500Y-1988500D03*
X-815000Y-2295000D03*
X-1200000Y-1695000D03*
X-1280000Y-1890000D03*
X-1345040Y342410D03*
X-1280000Y140000D03*
X-984200Y184200D03*
X-1224200Y910800D03*
X-1085000Y565000D03*
X-1350000Y1105000D03*
X-245000Y-2085290D03*
X-250000Y-2305000D03*
X-255000Y-2200000D03*
Y-2410000D03*
X-665000Y-2295000D03*
X-540000Y-2550200D03*
X-537500Y-2402500D03*
X-245000Y-1800000D03*
X-250000Y-1935000D03*
X-300000Y-1470000D03*
X-180000D03*
X-310000Y-905000D03*
X-200000Y-915000D03*
X-680000Y-900000D03*
X-445000D03*
X-565000Y-910000D03*
X-230000Y-320000D03*
X-202790Y195150D03*
X-322790D03*
X-202790Y80150D03*
X-322790D03*
X-202790Y-34850D03*
X-322790D03*
X-165000Y435000D03*
X-532160Y277830D03*
X-740000Y150000D03*
X-410000Y1020000D03*
X-295000Y1025000D03*
X-165000D03*
X-695000Y1990000D03*
X25000Y-1589200D03*
X430000D03*
X-60000Y-915000D03*
X265000Y-910000D03*
X165000D03*
X395000D03*
X82500Y-280000D03*
X-120000D03*
X-82790Y195150D03*
Y80150D03*
Y-34850D03*
X-40000Y1030000D03*
X165000Y1035000D03*
X415000Y805000D03*
X295000Y870000D03*
X60000Y1050000D03*
X135000Y1435000D03*
X230000Y1430000D03*
X70800Y2100000D03*
X-60000Y2305000D03*
X70800Y2510000D03*
X997500Y-1022500D03*
X517500Y-847500D03*
X1035000Y-230000D03*
Y-430000D03*
X814200Y-619200D03*
X845000Y-689030D03*
X480000Y-735000D03*
X1030800Y-634200D03*
X1040000Y570000D03*
X904200Y2120800D03*
X865000Y1902500D03*
X1025000Y2305000D03*
X904200Y2484200D03*
X1540800Y-2025000D03*
X1410000Y-2145000D03*
X1420000Y-2270000D03*
X1420400Y-2395400D03*
X1540800Y-1610000D03*
X1235000Y-755000D03*
X1434200Y-634200D03*
X1055000Y650000D03*
X1065000Y2040000D03*
X1267500Y1902500D03*
X2205000Y-2050000D03*
X1920000Y-605000D03*
X1870200Y74990D03*
X1759200Y-139200D03*
X1865000Y430000D03*
Y280000D03*
X1855000Y635000D03*
X2405000Y-2050000D03*
Y-2195000D03*
X2290000Y1545000D03*
Y2020000D03*
G54D20*
X-1558500Y1060000D03*
X-1861500D03*
X-1591500Y1720000D03*
X-1621500Y2265000D03*
X-1296500Y-575000D03*
X-993500D03*
X-988500Y-215000D03*
X-1291500D03*
X-1288500Y1720000D03*
X-1318500Y2265000D03*
X-121500Y-1935000D03*
X181500D03*
X186500Y-2305000D03*
X-116500D03*
X448500Y590000D03*
Y1020000D03*
X751500Y590000D03*
Y1020000D03*
X1458500Y840000D03*
X1761500D03*
G54D11*
X-1420000Y-1988500D03*
X-1470000D03*
X-1520000D03*
Y-1791500D03*
X-1470000D03*
X-1420000D03*
X-1370000Y-1988500D03*
Y-1791500D03*
G54D21*
X-951500Y730000D03*
X-678500D03*
G54D12*
X-1669200Y-2245000D03*
X-1360800D03*
X-1320800Y680000D03*
X-1629200D03*
X-984200Y375000D03*
X-915800Y1105000D03*
X-1224200D03*
X-675800Y375000D03*
X379200Y2305000D03*
X70800D03*
X595800D03*
X904200D03*
X1545800Y-2270000D03*
X1540800Y-1825000D03*
X1525800Y-395000D03*
X1425800Y430000D03*
X1450800Y65000D03*
X1854200Y-2270000D03*
X1849200Y-1825000D03*
X1834200Y-395000D03*
X1734200Y430000D03*
X1759200Y65000D03*
G54D30*
X294500Y-40000D03*
X595500D03*
G54D22*
X-850000Y1480000D03*
Y2270000D03*
G54D13*
X-1630000Y-1566500D03*
Y-1263500D03*
X-750000Y-1566500D03*
X-1230000Y-1571500D03*
X-750000Y-1263500D03*
X-1230000Y-1268500D03*
X1055000Y873500D03*
Y1176500D03*
X1415000Y1153500D03*
Y1456500D03*
G54D40*
X1065000Y1607500D03*
Y1902500D03*
G54D31*
X325000Y1554000D03*
X230000D03*
X135000D03*
Y1786000D03*
X325000D03*
G54D32*
X840000Y-2275000D03*
G54D23*
X-850000Y1781250D03*
Y1968750D03*
G54D14*
X-1445000Y-1890000D03*
G54D41*
X2205000Y-2345000D03*
Y-1905000D03*
X2405000Y-2345000D03*
X2355000D03*
X2305000D03*
X2255000D03*
Y-1905000D03*
X2305000D03*
X2355000D03*
X2405000D03*
G54D33*
X1040000Y-2275000D03*
G54D24*
X-247500Y-1260000D03*
X-112500D03*
G54D15*
X-1603000Y-928000D03*
X-1730000D03*
X-1603000Y-801000D03*
X-1730000D03*
X-1603000Y-674000D03*
X-1730000D03*
X-1603000Y-547000D03*
X-1730000D03*
X-1603000Y-420000D03*
X935000Y-1480000D03*
Y-1780000D03*
G54D42*
X2290000Y1335000D03*
X1840000D03*
X2290000Y2245000D03*
X1840000D03*
G54D43*
G01X-2605000Y2675000D02*
X2690000D01*
Y-2680000D01*
X-2605000D01*
Y2675000D01*
G54D16*
X-1730000Y-420000D03*
G36*
G01X-194510Y-180600D02*
Y-129400D01*
X-194410Y-128710D01*
Y-128100D01*
X-194200Y-127490D01*
X-194100Y-126910D01*
X-193490Y-125100D01*
X-193210Y-124600D01*
X-192910Y-124010D01*
X-192600Y-123500D01*
X-192200Y-122890D01*
X-191790Y-122410D01*
X-191410Y-122010D01*
X-191000Y-121500D01*
X-190490Y-121090D01*
X-190090Y-120710D01*
X-189600Y-120300D01*
X-189000Y-119900D01*
X-188490Y-119590D01*
X-187900Y-119290D01*
X-187400Y-119010D01*
X-185590Y-118400D01*
X-185010Y-118300D01*
X-184400Y-118090D01*
X-183790D01*
X-183100Y-117990D01*
X-166900D01*
X-166210Y-118090D01*
X-165600D01*
X-164990Y-118300D01*
X-164410Y-118400D01*
X-162600Y-119010D01*
X-162100Y-119290D01*
X-161510Y-119590D01*
X-161000Y-119900D01*
X-160400Y-120300D01*
X-159910Y-120710D01*
X-159510Y-121090D01*
X-159000Y-121500D01*
X-158590Y-122010D01*
X-158210Y-122410D01*
X-157800Y-122890D01*
X-157400Y-123500D01*
X-157090Y-124010D01*
X-156790Y-124600D01*
X-156510Y-125100D01*
X-155900Y-126910D01*
X-155800Y-127490D01*
X-155590Y-128100D01*
Y-128710D01*
X-155490Y-129400D01*
Y-180600D01*
X-155590Y-181290D01*
Y-181900D01*
X-155800Y-182510D01*
X-155900Y-183090D01*
X-156510Y-184900D01*
X-156790Y-185400D01*
X-157090Y-185990D01*
X-157400Y-186500D01*
X-157800Y-187110D01*
X-158210Y-187590D01*
X-158590Y-187990D01*
X-159000Y-188500D01*
X-159510Y-188910D01*
X-159910Y-189290D01*
X-160400Y-189700D01*
X-161000Y-190100D01*
X-161510Y-190410D01*
X-162100Y-190710D01*
X-162600Y-190990D01*
X-164410Y-191600D01*
X-164990Y-191700D01*
X-165600Y-191910D01*
X-166210D01*
X-166900Y-192010D01*
X-183100D01*
X-183790Y-191910D01*
X-184400D01*
X-185010Y-191700D01*
X-185590Y-191600D01*
X-187400Y-190990D01*
X-187900Y-190710D01*
X-188490Y-190410D01*
X-189000Y-190100D01*
X-189600Y-189700D01*
X-190090Y-189290D01*
X-190490Y-188910D01*
X-191000Y-188500D01*
X-191410Y-187990D01*
X-191790Y-187590D01*
X-192200Y-187110D01*
X-192600Y-186500D01*
X-192910Y-185990D01*
X-193210Y-185400D01*
X-193490Y-184900D01*
X-194100Y-183090D01*
X-194200Y-182510D01*
X-194410Y-181900D01*
Y-181290D01*
X-194510Y-180600D01*
G37*
G36*
G01X-244510D02*
Y-129400D01*
X-244410Y-128710D01*
Y-128100D01*
X-244200Y-127490D01*
X-244100Y-126910D01*
X-243490Y-125100D01*
X-243210Y-124600D01*
X-242910Y-124010D01*
X-242600Y-123500D01*
X-242200Y-122890D01*
X-241790Y-122410D01*
X-241410Y-122010D01*
X-241000Y-121500D01*
X-240490Y-121090D01*
X-240090Y-120710D01*
X-239600Y-120300D01*
X-239000Y-119900D01*
X-238490Y-119590D01*
X-237900Y-119290D01*
X-237400Y-119010D01*
X-235590Y-118400D01*
X-235010Y-118300D01*
X-234400Y-118090D01*
X-233790D01*
X-233100Y-117990D01*
X-216900D01*
X-216210Y-118090D01*
X-215600D01*
X-214990Y-118300D01*
X-214410Y-118400D01*
X-212600Y-119010D01*
X-212100Y-119290D01*
X-211510Y-119590D01*
X-211000Y-119900D01*
X-210400Y-120300D01*
X-209910Y-120710D01*
X-209510Y-121090D01*
X-209000Y-121500D01*
X-208590Y-122010D01*
X-208210Y-122410D01*
X-207800Y-122890D01*
X-207400Y-123500D01*
X-207090Y-124010D01*
X-206790Y-124600D01*
X-206510Y-125100D01*
X-205900Y-126910D01*
X-205800Y-127490D01*
X-205590Y-128100D01*
Y-128710D01*
X-205490Y-129400D01*
Y-180600D01*
X-205590Y-181290D01*
Y-181900D01*
X-205800Y-182510D01*
X-205900Y-183090D01*
X-206510Y-184900D01*
X-206790Y-185400D01*
X-207090Y-185990D01*
X-207400Y-186500D01*
X-207800Y-187110D01*
X-208210Y-187590D01*
X-208590Y-187990D01*
X-209000Y-188500D01*
X-209510Y-188910D01*
X-209910Y-189290D01*
X-210400Y-189700D01*
X-211000Y-190100D01*
X-211510Y-190410D01*
X-212100Y-190710D01*
X-212600Y-190990D01*
X-214410Y-191600D01*
X-214990Y-191700D01*
X-215600Y-191910D01*
X-216210D01*
X-216900Y-192010D01*
X-233100D01*
X-233790Y-191910D01*
X-234400D01*
X-235010Y-191700D01*
X-235590Y-191600D01*
X-237400Y-190990D01*
X-237900Y-190710D01*
X-238490Y-190410D01*
X-239000Y-190100D01*
X-239600Y-189700D01*
X-240090Y-189290D01*
X-240490Y-188910D01*
X-241000Y-188500D01*
X-241410Y-187990D01*
X-241790Y-187590D01*
X-242200Y-187110D01*
X-242600Y-186500D01*
X-242910Y-185990D01*
X-243210Y-185400D01*
X-243490Y-184900D01*
X-244100Y-183090D01*
X-244200Y-182510D01*
X-244410Y-181900D01*
Y-181290D01*
X-244510Y-180600D01*
G37*
G36*
G01X-294510D02*
Y-129400D01*
X-294410Y-128710D01*
Y-128100D01*
X-294200Y-127490D01*
X-294100Y-126910D01*
X-293490Y-125100D01*
X-293210Y-124600D01*
X-292910Y-124010D01*
X-292600Y-123500D01*
X-292200Y-122890D01*
X-291790Y-122410D01*
X-291410Y-122010D01*
X-291000Y-121500D01*
X-290490Y-121090D01*
X-290090Y-120710D01*
X-289600Y-120300D01*
X-289000Y-119900D01*
X-288490Y-119590D01*
X-287900Y-119290D01*
X-287400Y-119010D01*
X-285590Y-118400D01*
X-285010Y-118300D01*
X-284400Y-118090D01*
X-283790D01*
X-283100Y-117990D01*
X-266900D01*
X-266210Y-118090D01*
X-265600D01*
X-264990Y-118300D01*
X-264410Y-118400D01*
X-262600Y-119010D01*
X-262100Y-119290D01*
X-261510Y-119590D01*
X-261000Y-119900D01*
X-260400Y-120300D01*
X-259910Y-120710D01*
X-259510Y-121090D01*
X-259000Y-121500D01*
X-258590Y-122010D01*
X-258210Y-122410D01*
X-257800Y-122890D01*
X-257400Y-123500D01*
X-257090Y-124010D01*
X-256790Y-124600D01*
X-256510Y-125100D01*
X-255900Y-126910D01*
X-255800Y-127490D01*
X-255590Y-128100D01*
Y-128710D01*
X-255490Y-129400D01*
Y-180600D01*
X-255590Y-181290D01*
Y-181900D01*
X-255800Y-182510D01*
X-255900Y-183090D01*
X-256510Y-184900D01*
X-256790Y-185400D01*
X-257090Y-185990D01*
X-257400Y-186500D01*
X-257800Y-187110D01*
X-258210Y-187590D01*
X-258590Y-187990D01*
X-259000Y-188500D01*
X-259510Y-188910D01*
X-259910Y-189290D01*
X-260400Y-189700D01*
X-261000Y-190100D01*
X-261510Y-190410D01*
X-262100Y-190710D01*
X-262600Y-190990D01*
X-264410Y-191600D01*
X-264990Y-191700D01*
X-265600Y-191910D01*
X-266210D01*
X-266900Y-192010D01*
X-283100D01*
X-283790Y-191910D01*
X-284400D01*
X-285010Y-191700D01*
X-285590Y-191600D01*
X-287400Y-190990D01*
X-287900Y-190710D01*
X-288490Y-190410D01*
X-289000Y-190100D01*
X-289600Y-189700D01*
X-290090Y-189290D01*
X-290490Y-188910D01*
X-291000Y-188500D01*
X-291410Y-187990D01*
X-291790Y-187590D01*
X-292200Y-187110D01*
X-292600Y-186500D01*
X-292910Y-185990D01*
X-293210Y-185400D01*
X-293490Y-184900D01*
X-294100Y-183090D01*
X-294200Y-182510D01*
X-294410Y-181900D01*
Y-181290D01*
X-294510Y-180600D01*
G37*
G36*
G01X-344510D02*
Y-129400D01*
X-344410Y-128710D01*
Y-128100D01*
X-344200Y-127490D01*
X-344100Y-126910D01*
X-343490Y-125100D01*
X-343210Y-124600D01*
X-342910Y-124010D01*
X-342600Y-123500D01*
X-342200Y-122890D01*
X-341790Y-122410D01*
X-341410Y-122010D01*
X-341000Y-121500D01*
X-340490Y-121090D01*
X-340090Y-120710D01*
X-339600Y-120300D01*
X-339000Y-119900D01*
X-338490Y-119590D01*
X-337900Y-119290D01*
X-337400Y-119010D01*
X-335590Y-118400D01*
X-335010Y-118300D01*
X-334400Y-118090D01*
X-333790D01*
X-333100Y-117990D01*
X-316900D01*
X-316210Y-118090D01*
X-315600D01*
X-314990Y-118300D01*
X-314410Y-118400D01*
X-312600Y-119010D01*
X-312100Y-119290D01*
X-311510Y-119590D01*
X-311000Y-119900D01*
X-310400Y-120300D01*
X-309910Y-120710D01*
X-309510Y-121090D01*
X-309000Y-121500D01*
X-308590Y-122010D01*
X-308210Y-122410D01*
X-307800Y-122890D01*
X-307400Y-123500D01*
X-307090Y-124010D01*
X-306790Y-124600D01*
X-306510Y-125100D01*
X-305900Y-126910D01*
X-305800Y-127490D01*
X-305590Y-128100D01*
Y-128710D01*
X-305490Y-129400D01*
Y-180600D01*
X-305590Y-181290D01*
Y-181900D01*
X-305800Y-182510D01*
X-305900Y-183090D01*
X-306510Y-184900D01*
X-306790Y-185400D01*
X-307090Y-185990D01*
X-307400Y-186500D01*
X-307800Y-187110D01*
X-308210Y-187590D01*
X-308590Y-187990D01*
X-309000Y-188500D01*
X-309510Y-188910D01*
X-309910Y-189290D01*
X-310400Y-189700D01*
X-311000Y-190100D01*
X-311510Y-190410D01*
X-312100Y-190710D01*
X-312600Y-190990D01*
X-314410Y-191600D01*
X-314990Y-191700D01*
X-315600Y-191910D01*
X-316210D01*
X-316900Y-192010D01*
X-333100D01*
X-333790Y-191910D01*
X-334400D01*
X-335010Y-191700D01*
X-335590Y-191600D01*
X-337400Y-190990D01*
X-337900Y-190710D01*
X-338490Y-190410D01*
X-339000Y-190100D01*
X-339600Y-189700D01*
X-340090Y-189290D01*
X-340490Y-188910D01*
X-341000Y-188500D01*
X-341410Y-187990D01*
X-341790Y-187590D01*
X-342200Y-187110D01*
X-342600Y-186500D01*
X-342910Y-185990D01*
X-343210Y-185400D01*
X-343490Y-184900D01*
X-344100Y-183090D01*
X-344200Y-182510D01*
X-344410Y-181900D01*
Y-181290D01*
X-344510Y-180600D01*
G37*
G36*
G01X-394510D02*
Y-129400D01*
X-394410Y-128710D01*
Y-128100D01*
X-394200Y-127490D01*
X-394100Y-126910D01*
X-393490Y-125100D01*
X-393210Y-124600D01*
X-392910Y-124010D01*
X-392600Y-123500D01*
X-392200Y-122890D01*
X-391790Y-122410D01*
X-391410Y-122010D01*
X-391000Y-121500D01*
X-390490Y-121090D01*
X-390090Y-120710D01*
X-389600Y-120300D01*
X-389000Y-119900D01*
X-388490Y-119590D01*
X-387900Y-119290D01*
X-387400Y-119010D01*
X-385590Y-118400D01*
X-385010Y-118300D01*
X-384400Y-118090D01*
X-383790D01*
X-383100Y-117990D01*
X-366900D01*
X-366210Y-118090D01*
X-365600D01*
X-364990Y-118300D01*
X-364410Y-118400D01*
X-362600Y-119010D01*
X-362100Y-119290D01*
X-361510Y-119590D01*
X-361000Y-119900D01*
X-360400Y-120300D01*
X-359910Y-120710D01*
X-359510Y-121090D01*
X-359000Y-121500D01*
X-358590Y-122010D01*
X-358210Y-122410D01*
X-357800Y-122890D01*
X-357400Y-123500D01*
X-357090Y-124010D01*
X-356790Y-124600D01*
X-356510Y-125100D01*
X-355900Y-126910D01*
X-355800Y-127490D01*
X-355590Y-128100D01*
Y-128710D01*
X-355490Y-129400D01*
Y-180600D01*
X-355590Y-181290D01*
Y-181900D01*
X-355800Y-182510D01*
X-355900Y-183090D01*
X-356510Y-184900D01*
X-356790Y-185400D01*
X-357090Y-185990D01*
X-357400Y-186500D01*
X-357800Y-187110D01*
X-358210Y-187590D01*
X-358590Y-187990D01*
X-359000Y-188500D01*
X-359510Y-188910D01*
X-359910Y-189290D01*
X-360400Y-189700D01*
X-361000Y-190100D01*
X-361510Y-190410D01*
X-362100Y-190710D01*
X-362600Y-190990D01*
X-364410Y-191600D01*
X-364990Y-191700D01*
X-365600Y-191910D01*
X-366210D01*
X-366900Y-192010D01*
X-383100D01*
X-383790Y-191910D01*
X-384400D01*
X-385010Y-191700D01*
X-385590Y-191600D01*
X-387400Y-190990D01*
X-387900Y-190710D01*
X-388490Y-190410D01*
X-389000Y-190100D01*
X-389600Y-189700D01*
X-390090Y-189290D01*
X-390490Y-188910D01*
X-391000Y-188500D01*
X-391410Y-187990D01*
X-391790Y-187590D01*
X-392200Y-187110D01*
X-392600Y-186500D01*
X-392910Y-185990D01*
X-393210Y-185400D01*
X-393490Y-184900D01*
X-394100Y-183090D01*
X-394200Y-182510D01*
X-394410Y-181900D01*
Y-181290D01*
X-394510Y-180600D01*
G37*
G36*
G01Y299400D02*
Y350600D01*
X-394410Y351290D01*
Y351900D01*
X-394200Y352510D01*
X-394100Y353090D01*
X-393490Y354900D01*
X-393210Y355400D01*
X-392910Y355990D01*
X-392600Y356500D01*
X-392200Y357110D01*
X-391790Y357590D01*
X-391410Y357990D01*
X-391000Y358500D01*
X-390490Y358910D01*
X-390090Y359290D01*
X-389600Y359700D01*
X-389000Y360100D01*
X-388490Y360410D01*
X-387900Y360710D01*
X-387400Y360990D01*
X-385590Y361600D01*
X-385010Y361700D01*
X-384400Y361910D01*
X-383790D01*
X-383100Y362010D01*
X-366900D01*
X-366210Y361910D01*
X-365600D01*
X-364990Y361700D01*
X-364410Y361600D01*
X-362600Y360990D01*
X-362100Y360710D01*
X-361510Y360410D01*
X-361000Y360100D01*
X-360400Y359700D01*
X-359910Y359290D01*
X-359510Y358910D01*
X-359000Y358500D01*
X-358590Y357990D01*
X-358210Y357590D01*
X-357800Y357110D01*
X-357400Y356500D01*
X-357090Y355990D01*
X-356790Y355400D01*
X-356510Y354900D01*
X-355900Y353090D01*
X-355800Y352510D01*
X-355590Y351900D01*
Y351290D01*
X-355490Y350600D01*
Y299400D01*
X-355590Y298710D01*
Y298100D01*
X-355800Y297490D01*
X-355900Y296910D01*
X-356510Y295100D01*
X-356790Y294600D01*
X-357090Y294010D01*
X-357400Y293500D01*
X-357800Y292890D01*
X-358210Y292410D01*
X-358590Y292010D01*
X-359000Y291500D01*
X-359510Y291090D01*
X-359910Y290710D01*
X-360400Y290300D01*
X-361000Y289900D01*
X-361510Y289590D01*
X-362100Y289290D01*
X-362600Y289010D01*
X-364410Y288400D01*
X-364990Y288300D01*
X-365600Y288090D01*
X-366210D01*
X-366900Y287990D01*
X-383100D01*
X-383790Y288090D01*
X-384400D01*
X-385010Y288300D01*
X-385590Y288400D01*
X-387400Y289010D01*
X-387900Y289290D01*
X-388490Y289590D01*
X-389000Y289900D01*
X-389600Y290300D01*
X-390090Y290710D01*
X-390490Y291090D01*
X-391000Y291500D01*
X-391410Y292010D01*
X-391790Y292410D01*
X-392200Y292890D01*
X-392600Y293500D01*
X-392910Y294010D01*
X-393210Y294600D01*
X-393490Y295100D01*
X-394100Y296910D01*
X-394200Y297490D01*
X-394410Y298100D01*
Y298710D01*
X-394510Y299400D01*
G37*
G36*
G01X-344510D02*
Y350600D01*
X-344410Y351290D01*
Y351900D01*
X-344200Y352510D01*
X-344100Y353090D01*
X-343490Y354900D01*
X-343210Y355400D01*
X-342910Y355990D01*
X-342600Y356500D01*
X-342200Y357110D01*
X-341790Y357590D01*
X-341410Y357990D01*
X-341000Y358500D01*
X-340490Y358910D01*
X-340090Y359290D01*
X-339600Y359700D01*
X-339000Y360100D01*
X-338490Y360410D01*
X-337900Y360710D01*
X-337400Y360990D01*
X-335590Y361600D01*
X-335010Y361700D01*
X-334400Y361910D01*
X-333790D01*
X-333100Y362010D01*
X-316900D01*
X-316210Y361910D01*
X-315600D01*
X-314990Y361700D01*
X-314410Y361600D01*
X-312600Y360990D01*
X-312100Y360710D01*
X-311510Y360410D01*
X-311000Y360100D01*
X-310400Y359700D01*
X-309910Y359290D01*
X-309510Y358910D01*
X-309000Y358500D01*
X-308590Y357990D01*
X-308210Y357590D01*
X-307800Y357110D01*
X-307400Y356500D01*
X-307090Y355990D01*
X-306790Y355400D01*
X-306510Y354900D01*
X-305900Y353090D01*
X-305800Y352510D01*
X-305590Y351900D01*
Y351290D01*
X-305490Y350600D01*
Y299400D01*
X-305590Y298710D01*
Y298100D01*
X-305800Y297490D01*
X-305900Y296910D01*
X-306510Y295100D01*
X-306790Y294600D01*
X-307090Y294010D01*
X-307400Y293500D01*
X-307800Y292890D01*
X-308210Y292410D01*
X-308590Y292010D01*
X-309000Y291500D01*
X-309510Y291090D01*
X-309910Y290710D01*
X-310400Y290300D01*
X-311000Y289900D01*
X-311510Y289590D01*
X-312100Y289290D01*
X-312600Y289010D01*
X-314410Y288400D01*
X-314990Y288300D01*
X-315600Y288090D01*
X-316210D01*
X-316900Y287990D01*
X-333100D01*
X-333790Y288090D01*
X-334400D01*
X-335010Y288300D01*
X-335590Y288400D01*
X-337400Y289010D01*
X-337900Y289290D01*
X-338490Y289590D01*
X-339000Y289900D01*
X-339600Y290300D01*
X-340090Y290710D01*
X-340490Y291090D01*
X-341000Y291500D01*
X-341410Y292010D01*
X-341790Y292410D01*
X-342200Y292890D01*
X-342600Y293500D01*
X-342910Y294010D01*
X-343210Y294600D01*
X-343490Y295100D01*
X-344100Y296910D01*
X-344200Y297490D01*
X-344410Y298100D01*
Y298710D01*
X-344510Y299400D01*
G37*
G36*
G01X-294510D02*
Y350600D01*
X-294410Y351290D01*
Y351900D01*
X-294200Y352510D01*
X-294100Y353090D01*
X-293490Y354900D01*
X-293210Y355400D01*
X-292910Y355990D01*
X-292600Y356500D01*
X-292200Y357110D01*
X-291790Y357590D01*
X-291410Y357990D01*
X-291000Y358500D01*
X-290490Y358910D01*
X-290090Y359290D01*
X-289600Y359700D01*
X-289000Y360100D01*
X-288490Y360410D01*
X-287900Y360710D01*
X-287400Y360990D01*
X-285590Y361600D01*
X-285010Y361700D01*
X-284400Y361910D01*
X-283790D01*
X-283100Y362010D01*
X-266900D01*
X-266210Y361910D01*
X-265600D01*
X-264990Y361700D01*
X-264410Y361600D01*
X-262600Y360990D01*
X-262100Y360710D01*
X-261510Y360410D01*
X-261000Y360100D01*
X-260400Y359700D01*
X-259910Y359290D01*
X-259510Y358910D01*
X-259000Y358500D01*
X-258590Y357990D01*
X-258210Y357590D01*
X-257800Y357110D01*
X-257400Y356500D01*
X-257090Y355990D01*
X-256790Y355400D01*
X-256510Y354900D01*
X-255900Y353090D01*
X-255800Y352510D01*
X-255590Y351900D01*
Y351290D01*
X-255490Y350600D01*
Y299400D01*
X-255590Y298710D01*
Y298100D01*
X-255800Y297490D01*
X-255900Y296910D01*
X-256510Y295100D01*
X-256790Y294600D01*
X-257090Y294010D01*
X-257400Y293500D01*
X-257800Y292890D01*
X-258210Y292410D01*
X-258590Y292010D01*
X-259000Y291500D01*
X-259510Y291090D01*
X-259910Y290710D01*
X-260400Y290300D01*
X-261000Y289900D01*
X-261510Y289590D01*
X-262100Y289290D01*
X-262600Y289010D01*
X-264410Y288400D01*
X-264990Y288300D01*
X-265600Y288090D01*
X-266210D01*
X-266900Y287990D01*
X-283100D01*
X-283790Y288090D01*
X-284400D01*
X-285010Y288300D01*
X-285590Y288400D01*
X-287400Y289010D01*
X-287900Y289290D01*
X-288490Y289590D01*
X-289000Y289900D01*
X-289600Y290300D01*
X-290090Y290710D01*
X-290490Y291090D01*
X-291000Y291500D01*
X-291410Y292010D01*
X-291790Y292410D01*
X-292200Y292890D01*
X-292600Y293500D01*
X-292910Y294010D01*
X-293210Y294600D01*
X-293490Y295100D01*
X-294100Y296910D01*
X-294200Y297490D01*
X-294410Y298100D01*
Y298710D01*
X-294510Y299400D01*
G37*
G36*
G01X-244510D02*
Y350600D01*
X-244410Y351290D01*
Y351900D01*
X-244200Y352510D01*
X-244100Y353090D01*
X-243490Y354900D01*
X-243210Y355400D01*
X-242910Y355990D01*
X-242600Y356500D01*
X-242200Y357110D01*
X-241790Y357590D01*
X-241410Y357990D01*
X-241000Y358500D01*
X-240490Y358910D01*
X-240090Y359290D01*
X-239600Y359700D01*
X-239000Y360100D01*
X-238490Y360410D01*
X-237900Y360710D01*
X-237400Y360990D01*
X-235590Y361600D01*
X-235010Y361700D01*
X-234400Y361910D01*
X-233790D01*
X-233100Y362010D01*
X-216900D01*
X-216210Y361910D01*
X-215600D01*
X-214990Y361700D01*
X-214410Y361600D01*
X-212600Y360990D01*
X-212100Y360710D01*
X-211510Y360410D01*
X-211000Y360100D01*
X-210400Y359700D01*
X-209910Y359290D01*
X-209510Y358910D01*
X-209000Y358500D01*
X-208590Y357990D01*
X-208210Y357590D01*
X-207800Y357110D01*
X-207400Y356500D01*
X-207090Y355990D01*
X-206790Y355400D01*
X-206510Y354900D01*
X-205900Y353090D01*
X-205800Y352510D01*
X-205590Y351900D01*
Y351290D01*
X-205490Y350600D01*
Y299400D01*
X-205590Y298710D01*
Y298100D01*
X-205800Y297490D01*
X-205900Y296910D01*
X-206510Y295100D01*
X-206790Y294600D01*
X-207090Y294010D01*
X-207400Y293500D01*
X-207800Y292890D01*
X-208210Y292410D01*
X-208590Y292010D01*
X-209000Y291500D01*
X-209510Y291090D01*
X-209910Y290710D01*
X-210400Y290300D01*
X-211000Y289900D01*
X-211510Y289590D01*
X-212100Y289290D01*
X-212600Y289010D01*
X-214410Y288400D01*
X-214990Y288300D01*
X-215600Y288090D01*
X-216210D01*
X-216900Y287990D01*
X-233100D01*
X-233790Y288090D01*
X-234400D01*
X-235010Y288300D01*
X-235590Y288400D01*
X-237400Y289010D01*
X-237900Y289290D01*
X-238490Y289590D01*
X-239000Y289900D01*
X-239600Y290300D01*
X-240090Y290710D01*
X-240490Y291090D01*
X-241000Y291500D01*
X-241410Y292010D01*
X-241790Y292410D01*
X-242200Y292890D01*
X-242600Y293500D01*
X-242910Y294010D01*
X-243210Y294600D01*
X-243490Y295100D01*
X-244100Y296910D01*
X-244200Y297490D01*
X-244410Y298100D01*
Y298710D01*
X-244510Y299400D01*
G37*
G36*
G01X-194510D02*
Y350600D01*
X-194410Y351290D01*
Y351900D01*
X-194200Y352510D01*
X-194100Y353090D01*
X-193490Y354900D01*
X-193210Y355400D01*
X-192910Y355990D01*
X-192600Y356500D01*
X-192200Y357110D01*
X-191790Y357590D01*
X-191410Y357990D01*
X-191000Y358500D01*
X-190490Y358910D01*
X-190090Y359290D01*
X-189600Y359700D01*
X-189000Y360100D01*
X-188490Y360410D01*
X-187900Y360710D01*
X-187400Y360990D01*
X-185590Y361600D01*
X-185010Y361700D01*
X-184400Y361910D01*
X-183790D01*
X-183100Y362010D01*
X-166900D01*
X-166210Y361910D01*
X-165600D01*
X-164990Y361700D01*
X-164410Y361600D01*
X-162600Y360990D01*
X-162100Y360710D01*
X-161510Y360410D01*
X-161000Y360100D01*
X-160400Y359700D01*
X-159910Y359290D01*
X-159510Y358910D01*
X-159000Y358500D01*
X-158590Y357990D01*
X-158210Y357590D01*
X-157800Y357110D01*
X-157400Y356500D01*
X-157090Y355990D01*
X-156790Y355400D01*
X-156510Y354900D01*
X-155900Y353090D01*
X-155800Y352510D01*
X-155590Y351900D01*
Y351290D01*
X-155490Y350600D01*
Y299400D01*
X-155590Y298710D01*
Y298100D01*
X-155800Y297490D01*
X-155900Y296910D01*
X-156510Y295100D01*
X-156790Y294600D01*
X-157090Y294010D01*
X-157400Y293500D01*
X-157800Y292890D01*
X-158210Y292410D01*
X-158590Y292010D01*
X-159000Y291500D01*
X-159510Y291090D01*
X-159910Y290710D01*
X-160400Y290300D01*
X-161000Y289900D01*
X-161510Y289590D01*
X-162100Y289290D01*
X-162600Y289010D01*
X-164410Y288400D01*
X-164990Y288300D01*
X-165600Y288090D01*
X-166210D01*
X-166900Y287990D01*
X-183100D01*
X-183790Y288090D01*
X-184400D01*
X-185010Y288300D01*
X-185590Y288400D01*
X-187400Y289010D01*
X-187900Y289290D01*
X-188490Y289590D01*
X-189000Y289900D01*
X-189600Y290300D01*
X-190090Y290710D01*
X-190490Y291090D01*
X-191000Y291500D01*
X-191410Y292010D01*
X-191790Y292410D01*
X-192200Y292890D01*
X-192600Y293500D01*
X-192910Y294010D01*
X-193210Y294600D01*
X-193490Y295100D01*
X-194100Y296910D01*
X-194200Y297490D01*
X-194410Y298100D01*
Y298710D01*
X-194510Y299400D01*
G37*
G36*
G01X-44510Y-180600D02*
Y-129400D01*
X-44410Y-128710D01*
Y-128100D01*
X-44200Y-127490D01*
X-44100Y-126910D01*
X-43490Y-125100D01*
X-43210Y-124600D01*
X-42910Y-124010D01*
X-42600Y-123500D01*
X-42200Y-122890D01*
X-41790Y-122410D01*
X-41410Y-122010D01*
X-41000Y-121500D01*
X-40490Y-121090D01*
X-40090Y-120710D01*
X-39600Y-120300D01*
X-39000Y-119900D01*
X-38490Y-119590D01*
X-37900Y-119290D01*
X-37400Y-119010D01*
X-35590Y-118400D01*
X-35010Y-118300D01*
X-34400Y-118090D01*
X-33790D01*
X-33100Y-117990D01*
X-16900D01*
X-16210Y-118090D01*
X-15600D01*
X-14990Y-118300D01*
X-14410Y-118400D01*
X-12600Y-119010D01*
X-12100Y-119290D01*
X-11510Y-119590D01*
X-11000Y-119900D01*
X-10400Y-120300D01*
X-9910Y-120710D01*
X-9510Y-121090D01*
X-9000Y-121500D01*
X-8590Y-122010D01*
X-8210Y-122410D01*
X-7800Y-122890D01*
X-7400Y-123500D01*
X-7090Y-124010D01*
X-6790Y-124600D01*
X-6510Y-125100D01*
X-5900Y-126910D01*
X-5800Y-127490D01*
X-5590Y-128100D01*
Y-128710D01*
X-5490Y-129400D01*
Y-180600D01*
X-5590Y-181290D01*
Y-181900D01*
X-5800Y-182510D01*
X-5900Y-183090D01*
X-6510Y-184900D01*
X-6790Y-185400D01*
X-7090Y-185990D01*
X-7400Y-186500D01*
X-7800Y-187110D01*
X-8210Y-187590D01*
X-8590Y-187990D01*
X-9000Y-188500D01*
X-9510Y-188910D01*
X-9910Y-189290D01*
X-10400Y-189700D01*
X-11000Y-190100D01*
X-11510Y-190410D01*
X-12100Y-190710D01*
X-12600Y-190990D01*
X-14410Y-191600D01*
X-14990Y-191700D01*
X-15600Y-191910D01*
X-16210D01*
X-16900Y-192010D01*
X-33100D01*
X-33790Y-191910D01*
X-34400D01*
X-35010Y-191700D01*
X-35590Y-191600D01*
X-37400Y-190990D01*
X-37900Y-190710D01*
X-38490Y-190410D01*
X-39000Y-190100D01*
X-39600Y-189700D01*
X-40090Y-189290D01*
X-40490Y-188910D01*
X-41000Y-188500D01*
X-41410Y-187990D01*
X-41790Y-187590D01*
X-42200Y-187110D01*
X-42600Y-186500D01*
X-42910Y-185990D01*
X-43210Y-185400D01*
X-43490Y-184900D01*
X-44100Y-183090D01*
X-44200Y-182510D01*
X-44410Y-181900D01*
Y-181290D01*
X-44510Y-180600D01*
G37*
G36*
G01X-94510D02*
Y-129400D01*
X-94410Y-128710D01*
Y-128100D01*
X-94200Y-127490D01*
X-94100Y-126910D01*
X-93490Y-125100D01*
X-93210Y-124600D01*
X-92910Y-124010D01*
X-92600Y-123500D01*
X-92200Y-122890D01*
X-91790Y-122410D01*
X-91410Y-122010D01*
X-91000Y-121500D01*
X-90490Y-121090D01*
X-90090Y-120710D01*
X-89600Y-120300D01*
X-89000Y-119900D01*
X-88490Y-119590D01*
X-87900Y-119290D01*
X-87400Y-119010D01*
X-85590Y-118400D01*
X-85010Y-118300D01*
X-84400Y-118090D01*
X-83790D01*
X-83100Y-117990D01*
X-66900D01*
X-66210Y-118090D01*
X-65600D01*
X-64990Y-118300D01*
X-64410Y-118400D01*
X-62600Y-119010D01*
X-62100Y-119290D01*
X-61510Y-119590D01*
X-61000Y-119900D01*
X-60400Y-120300D01*
X-59910Y-120710D01*
X-59510Y-121090D01*
X-59000Y-121500D01*
X-58590Y-122010D01*
X-58210Y-122410D01*
X-57800Y-122890D01*
X-57400Y-123500D01*
X-57090Y-124010D01*
X-56790Y-124600D01*
X-56510Y-125100D01*
X-55900Y-126910D01*
X-55800Y-127490D01*
X-55590Y-128100D01*
Y-128710D01*
X-55490Y-129400D01*
Y-180600D01*
X-55590Y-181290D01*
Y-181900D01*
X-55800Y-182510D01*
X-55900Y-183090D01*
X-56510Y-184900D01*
X-56790Y-185400D01*
X-57090Y-185990D01*
X-57400Y-186500D01*
X-57800Y-187110D01*
X-58210Y-187590D01*
X-58590Y-187990D01*
X-59000Y-188500D01*
X-59510Y-188910D01*
X-59910Y-189290D01*
X-60400Y-189700D01*
X-61000Y-190100D01*
X-61510Y-190410D01*
X-62100Y-190710D01*
X-62600Y-190990D01*
X-64410Y-191600D01*
X-64990Y-191700D01*
X-65600Y-191910D01*
X-66210D01*
X-66900Y-192010D01*
X-83100D01*
X-83790Y-191910D01*
X-84400D01*
X-85010Y-191700D01*
X-85590Y-191600D01*
X-87400Y-190990D01*
X-87900Y-190710D01*
X-88490Y-190410D01*
X-89000Y-190100D01*
X-89600Y-189700D01*
X-90090Y-189290D01*
X-90490Y-188910D01*
X-91000Y-188500D01*
X-91410Y-187990D01*
X-91790Y-187590D01*
X-92200Y-187110D01*
X-92600Y-186500D01*
X-92910Y-185990D01*
X-93210Y-185400D01*
X-93490Y-184900D01*
X-94100Y-183090D01*
X-94200Y-182510D01*
X-94410Y-181900D01*
Y-181290D01*
X-94510Y-180600D01*
G37*
G36*
G01X-144510D02*
Y-129400D01*
X-144410Y-128710D01*
Y-128100D01*
X-144200Y-127490D01*
X-144100Y-126910D01*
X-143490Y-125100D01*
X-143210Y-124600D01*
X-142910Y-124010D01*
X-142600Y-123500D01*
X-142200Y-122890D01*
X-141790Y-122410D01*
X-141410Y-122010D01*
X-141000Y-121500D01*
X-140490Y-121090D01*
X-140090Y-120710D01*
X-139600Y-120300D01*
X-139000Y-119900D01*
X-138490Y-119590D01*
X-137900Y-119290D01*
X-137400Y-119010D01*
X-135590Y-118400D01*
X-135010Y-118300D01*
X-134400Y-118090D01*
X-133790D01*
X-133100Y-117990D01*
X-116900D01*
X-116210Y-118090D01*
X-115600D01*
X-114990Y-118300D01*
X-114410Y-118400D01*
X-112600Y-119010D01*
X-112100Y-119290D01*
X-111510Y-119590D01*
X-111000Y-119900D01*
X-110400Y-120300D01*
X-109910Y-120710D01*
X-109510Y-121090D01*
X-109000Y-121500D01*
X-108590Y-122010D01*
X-108210Y-122410D01*
X-107800Y-122890D01*
X-107400Y-123500D01*
X-107090Y-124010D01*
X-106790Y-124600D01*
X-106510Y-125100D01*
X-105900Y-126910D01*
X-105800Y-127490D01*
X-105590Y-128100D01*
Y-128710D01*
X-105490Y-129400D01*
Y-180600D01*
X-105590Y-181290D01*
Y-181900D01*
X-105800Y-182510D01*
X-105900Y-183090D01*
X-106510Y-184900D01*
X-106790Y-185400D01*
X-107090Y-185990D01*
X-107400Y-186500D01*
X-107800Y-187110D01*
X-108210Y-187590D01*
X-108590Y-187990D01*
X-109000Y-188500D01*
X-109510Y-188910D01*
X-109910Y-189290D01*
X-110400Y-189700D01*
X-111000Y-190100D01*
X-111510Y-190410D01*
X-112100Y-190710D01*
X-112600Y-190990D01*
X-114410Y-191600D01*
X-114990Y-191700D01*
X-115600Y-191910D01*
X-116210D01*
X-116900Y-192010D01*
X-133100D01*
X-133790Y-191910D01*
X-134400D01*
X-135010Y-191700D01*
X-135590Y-191600D01*
X-137400Y-190990D01*
X-137900Y-190710D01*
X-138490Y-190410D01*
X-139000Y-190100D01*
X-139600Y-189700D01*
X-140090Y-189290D01*
X-140490Y-188910D01*
X-141000Y-188500D01*
X-141410Y-187990D01*
X-141790Y-187590D01*
X-142200Y-187110D01*
X-142600Y-186500D01*
X-142910Y-185990D01*
X-143210Y-185400D01*
X-143490Y-184900D01*
X-144100Y-183090D01*
X-144200Y-182510D01*
X-144410Y-181900D01*
Y-181290D01*
X-144510Y-180600D01*
G37*
G36*
G01X-44510Y299400D02*
Y350600D01*
X-44410Y351290D01*
Y351900D01*
X-44200Y352510D01*
X-44100Y353090D01*
X-43490Y354900D01*
X-43210Y355400D01*
X-42910Y355990D01*
X-42600Y356500D01*
X-42200Y357110D01*
X-41790Y357590D01*
X-41410Y357990D01*
X-41000Y358500D01*
X-40490Y358910D01*
X-40090Y359290D01*
X-39600Y359700D01*
X-39000Y360100D01*
X-38490Y360410D01*
X-37900Y360710D01*
X-37400Y360990D01*
X-35590Y361600D01*
X-35010Y361700D01*
X-34400Y361910D01*
X-33790D01*
X-33100Y362010D01*
X-16900D01*
X-16210Y361910D01*
X-15600D01*
X-14990Y361700D01*
X-14410Y361600D01*
X-12600Y360990D01*
X-12100Y360710D01*
X-11510Y360410D01*
X-11000Y360100D01*
X-10400Y359700D01*
X-9910Y359290D01*
X-9510Y358910D01*
X-9000Y358500D01*
X-8590Y357990D01*
X-8210Y357590D01*
X-7800Y357110D01*
X-7400Y356500D01*
X-7090Y355990D01*
X-6790Y355400D01*
X-6510Y354900D01*
X-5900Y353090D01*
X-5800Y352510D01*
X-5590Y351900D01*
Y351290D01*
X-5490Y350600D01*
Y299400D01*
X-5590Y298710D01*
Y298100D01*
X-5800Y297490D01*
X-5900Y296910D01*
X-6510Y295100D01*
X-6790Y294600D01*
X-7090Y294010D01*
X-7400Y293500D01*
X-7800Y292890D01*
X-8210Y292410D01*
X-8590Y292010D01*
X-9000Y291500D01*
X-9510Y291090D01*
X-9910Y290710D01*
X-10400Y290300D01*
X-11000Y289900D01*
X-11510Y289590D01*
X-12100Y289290D01*
X-12600Y289010D01*
X-14410Y288400D01*
X-14990Y288300D01*
X-15600Y288090D01*
X-16210D01*
X-16900Y287990D01*
X-33100D01*
X-33790Y288090D01*
X-34400D01*
X-35010Y288300D01*
X-35590Y288400D01*
X-37400Y289010D01*
X-37900Y289290D01*
X-38490Y289590D01*
X-39000Y289900D01*
X-39600Y290300D01*
X-40090Y290710D01*
X-40490Y291090D01*
X-41000Y291500D01*
X-41410Y292010D01*
X-41790Y292410D01*
X-42200Y292890D01*
X-42600Y293500D01*
X-42910Y294010D01*
X-43210Y294600D01*
X-43490Y295100D01*
X-44100Y296910D01*
X-44200Y297490D01*
X-44410Y298100D01*
Y298710D01*
X-44510Y299400D01*
G37*
G36*
G01X-144510D02*
Y350600D01*
X-144410Y351290D01*
Y351900D01*
X-144200Y352510D01*
X-144100Y353090D01*
X-143490Y354900D01*
X-143210Y355400D01*
X-142910Y355990D01*
X-142600Y356500D01*
X-142200Y357110D01*
X-141790Y357590D01*
X-141410Y357990D01*
X-141000Y358500D01*
X-140490Y358910D01*
X-140090Y359290D01*
X-139600Y359700D01*
X-139000Y360100D01*
X-138490Y360410D01*
X-137900Y360710D01*
X-137400Y360990D01*
X-135590Y361600D01*
X-135010Y361700D01*
X-134400Y361910D01*
X-133790D01*
X-133100Y362010D01*
X-116900D01*
X-116210Y361910D01*
X-115600D01*
X-114990Y361700D01*
X-114410Y361600D01*
X-112600Y360990D01*
X-112100Y360710D01*
X-111510Y360410D01*
X-111000Y360100D01*
X-110400Y359700D01*
X-109910Y359290D01*
X-109510Y358910D01*
X-109000Y358500D01*
X-108590Y357990D01*
X-108210Y357590D01*
X-107800Y357110D01*
X-107400Y356500D01*
X-107090Y355990D01*
X-106790Y355400D01*
X-106510Y354900D01*
X-105900Y353090D01*
X-105800Y352510D01*
X-105590Y351900D01*
Y351290D01*
X-105490Y350600D01*
Y299400D01*
X-105590Y298710D01*
Y298100D01*
X-105800Y297490D01*
X-105900Y296910D01*
X-106510Y295100D01*
X-106790Y294600D01*
X-107090Y294010D01*
X-107400Y293500D01*
X-107800Y292890D01*
X-108210Y292410D01*
X-108590Y292010D01*
X-109000Y291500D01*
X-109510Y291090D01*
X-109910Y290710D01*
X-110400Y290300D01*
X-111000Y289900D01*
X-111510Y289590D01*
X-112100Y289290D01*
X-112600Y289010D01*
X-114410Y288400D01*
X-114990Y288300D01*
X-115600Y288090D01*
X-116210D01*
X-116900Y287990D01*
X-133100D01*
X-133790Y288090D01*
X-134400D01*
X-135010Y288300D01*
X-135590Y288400D01*
X-137400Y289010D01*
X-137900Y289290D01*
X-138490Y289590D01*
X-139000Y289900D01*
X-139600Y290300D01*
X-140090Y290710D01*
X-140490Y291090D01*
X-141000Y291500D01*
X-141410Y292010D01*
X-141790Y292410D01*
X-142200Y292890D01*
X-142600Y293500D01*
X-142910Y294010D01*
X-143210Y294600D01*
X-143490Y295100D01*
X-144100Y296910D01*
X-144200Y297490D01*
X-144410Y298100D01*
Y298710D01*
X-144510Y299400D01*
G37*
G36*
G01X-94510D02*
Y350600D01*
X-94410Y351290D01*
Y351900D01*
X-94200Y352510D01*
X-94100Y353090D01*
X-93490Y354900D01*
X-93210Y355400D01*
X-92910Y355990D01*
X-92600Y356500D01*
X-92200Y357110D01*
X-91790Y357590D01*
X-91410Y357990D01*
X-91000Y358500D01*
X-90490Y358910D01*
X-90090Y359290D01*
X-89600Y359700D01*
X-89000Y360100D01*
X-88490Y360410D01*
X-87900Y360710D01*
X-87400Y360990D01*
X-85590Y361600D01*
X-85010Y361700D01*
X-84400Y361910D01*
X-83790D01*
X-83100Y362010D01*
X-66900D01*
X-66210Y361910D01*
X-65600D01*
X-64990Y361700D01*
X-64410Y361600D01*
X-62600Y360990D01*
X-62100Y360710D01*
X-61510Y360410D01*
X-61000Y360100D01*
X-60400Y359700D01*
X-59910Y359290D01*
X-59510Y358910D01*
X-59000Y358500D01*
X-58590Y357990D01*
X-58210Y357590D01*
X-57800Y357110D01*
X-57400Y356500D01*
X-57090Y355990D01*
X-56790Y355400D01*
X-56510Y354900D01*
X-55900Y353090D01*
X-55800Y352510D01*
X-55590Y351900D01*
Y351290D01*
X-55490Y350600D01*
Y299400D01*
X-55590Y298710D01*
Y298100D01*
X-55800Y297490D01*
X-55900Y296910D01*
X-56510Y295100D01*
X-56790Y294600D01*
X-57090Y294010D01*
X-57400Y293500D01*
X-57800Y292890D01*
X-58210Y292410D01*
X-58590Y292010D01*
X-59000Y291500D01*
X-59510Y291090D01*
X-59910Y290710D01*
X-60400Y290300D01*
X-61000Y289900D01*
X-61510Y289590D01*
X-62100Y289290D01*
X-62600Y289010D01*
X-64410Y288400D01*
X-64990Y288300D01*
X-65600Y288090D01*
X-66210D01*
X-66900Y287990D01*
X-83100D01*
X-83790Y288090D01*
X-84400D01*
X-85010Y288300D01*
X-85590Y288400D01*
X-87400Y289010D01*
X-87900Y289290D01*
X-88490Y289590D01*
X-89000Y289900D01*
X-89600Y290300D01*
X-90090Y290710D01*
X-90490Y291090D01*
X-91000Y291500D01*
X-91410Y292010D01*
X-91790Y292410D01*
X-92200Y292890D01*
X-92600Y293500D01*
X-92910Y294010D01*
X-93210Y294600D01*
X-93490Y295100D01*
X-94100Y296910D01*
X-94200Y297490D01*
X-94410Y298100D01*
Y298710D01*
X-94510Y299400D01*
G37*
G54D34*
X645000Y-1460000D03*
Y-1800000D03*
X1225000Y-1460000D03*
Y-1800000D03*
G54D26*
X-200000Y85000D03*
G54D17*
X-1511200Y140000D03*
Y190000D03*
Y240000D03*
X-1358800D03*
Y190000D03*
Y140000D03*
G54D35*
X640000Y-847500D03*
X870000D03*
Y-1022500D03*
X640000D03*
G54D18*
X-1460000Y266300D03*
X-1410000D03*
Y113700D03*
X-1460000D03*
G54D36*
X953200Y-320000D03*
X866800D03*
G36*
G01X-465600Y-70490D02*
X-414400D01*
X-413710Y-70590D01*
X-413100D01*
X-412490Y-70800D01*
X-411910Y-70900D01*
X-410100Y-71510D01*
X-409600Y-71790D01*
X-409010Y-72090D01*
X-408500Y-72400D01*
X-407890Y-72800D01*
X-407410Y-73210D01*
X-407010Y-73590D01*
X-406500Y-74000D01*
X-406090Y-74510D01*
X-405710Y-74910D01*
X-405300Y-75400D01*
X-404900Y-76000D01*
X-404590Y-76510D01*
X-404290Y-77100D01*
X-404010Y-77600D01*
X-403400Y-79410D01*
X-403300Y-79990D01*
X-403090Y-80600D01*
Y-81210D01*
X-402990Y-81900D01*
Y-98100D01*
X-403090Y-98790D01*
Y-99400D01*
X-403300Y-100010D01*
X-403400Y-100590D01*
X-404010Y-102400D01*
X-404290Y-102900D01*
X-404590Y-103490D01*
X-404900Y-104000D01*
X-405300Y-104600D01*
X-405710Y-105090D01*
X-406090Y-105490D01*
X-406500Y-106000D01*
X-407010Y-106410D01*
X-407410Y-106790D01*
X-407890Y-107200D01*
X-408500Y-107600D01*
X-409010Y-107910D01*
X-409600Y-108210D01*
X-410100Y-108490D01*
X-411910Y-109100D01*
X-412490Y-109200D01*
X-413100Y-109410D01*
X-413710D01*
X-414400Y-109510D01*
X-465600D01*
X-466290Y-109410D01*
X-466900D01*
X-467510Y-109200D01*
X-468090Y-109100D01*
X-469900Y-108490D01*
X-470400Y-108210D01*
X-470990Y-107910D01*
X-471500Y-107600D01*
X-472110Y-107200D01*
X-472590Y-106790D01*
X-472990Y-106410D01*
X-473500Y-106000D01*
X-473910Y-105490D01*
X-474290Y-105090D01*
X-474700Y-104600D01*
X-475100Y-104000D01*
X-475410Y-103490D01*
X-475710Y-102900D01*
X-475990Y-102400D01*
X-476600Y-100590D01*
X-476700Y-100010D01*
X-476910Y-99400D01*
Y-98790D01*
X-477010Y-98100D01*
Y-81900D01*
X-476910Y-81210D01*
Y-80600D01*
X-476700Y-79990D01*
X-476600Y-79410D01*
X-475990Y-77600D01*
X-475710Y-77100D01*
X-475410Y-76510D01*
X-475100Y-76000D01*
X-474700Y-75400D01*
X-474290Y-74910D01*
X-473910Y-74510D01*
X-473500Y-74000D01*
X-472990Y-73590D01*
X-472590Y-73210D01*
X-472110Y-72800D01*
X-471500Y-72400D01*
X-470990Y-72090D01*
X-470400Y-71790D01*
X-469900Y-71510D01*
X-468090Y-70900D01*
X-467510Y-70800D01*
X-466900Y-70590D01*
X-466290D01*
X-465600Y-70490D01*
G37*
G36*
G01Y-20490D02*
X-414400D01*
X-413710Y-20590D01*
X-413100D01*
X-412490Y-20800D01*
X-411910Y-20900D01*
X-410100Y-21510D01*
X-409600Y-21790D01*
X-409010Y-22090D01*
X-408500Y-22400D01*
X-407890Y-22800D01*
X-407410Y-23210D01*
X-407010Y-23590D01*
X-406500Y-24000D01*
X-406090Y-24510D01*
X-405710Y-24910D01*
X-405300Y-25400D01*
X-404900Y-26000D01*
X-404590Y-26510D01*
X-404290Y-27100D01*
X-404010Y-27600D01*
X-403400Y-29410D01*
X-403300Y-29990D01*
X-403090Y-30600D01*
Y-31210D01*
X-402990Y-31900D01*
Y-48100D01*
X-403090Y-48790D01*
Y-49400D01*
X-403300Y-50010D01*
X-403400Y-50590D01*
X-404010Y-52400D01*
X-404290Y-52900D01*
X-404590Y-53490D01*
X-404900Y-54000D01*
X-405300Y-54600D01*
X-405710Y-55090D01*
X-406090Y-55490D01*
X-406500Y-56000D01*
X-407010Y-56410D01*
X-407410Y-56790D01*
X-407890Y-57200D01*
X-408500Y-57600D01*
X-409010Y-57910D01*
X-409600Y-58210D01*
X-410100Y-58490D01*
X-411910Y-59100D01*
X-412490Y-59200D01*
X-413100Y-59410D01*
X-413710D01*
X-414400Y-59510D01*
X-465600D01*
X-466290Y-59410D01*
X-466900D01*
X-467510Y-59200D01*
X-468090Y-59100D01*
X-469900Y-58490D01*
X-470400Y-58210D01*
X-470990Y-57910D01*
X-471500Y-57600D01*
X-472110Y-57200D01*
X-472590Y-56790D01*
X-472990Y-56410D01*
X-473500Y-56000D01*
X-473910Y-55490D01*
X-474290Y-55090D01*
X-474700Y-54600D01*
X-475100Y-54000D01*
X-475410Y-53490D01*
X-475710Y-52900D01*
X-475990Y-52400D01*
X-476600Y-50590D01*
X-476700Y-50010D01*
X-476910Y-49400D01*
Y-48790D01*
X-477010Y-48100D01*
Y-31900D01*
X-476910Y-31210D01*
Y-30600D01*
X-476700Y-29990D01*
X-476600Y-29410D01*
X-475990Y-27600D01*
X-475710Y-27100D01*
X-475410Y-26510D01*
X-475100Y-26000D01*
X-474700Y-25400D01*
X-474290Y-24910D01*
X-473910Y-24510D01*
X-473500Y-24000D01*
X-472990Y-23590D01*
X-472590Y-23210D01*
X-472110Y-22800D01*
X-471500Y-22400D01*
X-470990Y-22090D01*
X-470400Y-21790D01*
X-469900Y-21510D01*
X-468090Y-20900D01*
X-467510Y-20800D01*
X-466900Y-20590D01*
X-466290D01*
X-465600Y-20490D01*
G37*
G36*
G01Y29510D02*
X-414400D01*
X-413710Y29410D01*
X-413100D01*
X-412490Y29200D01*
X-411910Y29100D01*
X-410100Y28490D01*
X-409600Y28210D01*
X-409010Y27910D01*
X-408500Y27600D01*
X-407890Y27200D01*
X-407410Y26790D01*
X-407010Y26410D01*
X-406500Y26000D01*
X-406090Y25490D01*
X-405710Y25090D01*
X-405300Y24600D01*
X-404900Y24000D01*
X-404590Y23490D01*
X-404290Y22900D01*
X-404010Y22400D01*
X-403400Y20590D01*
X-403300Y20010D01*
X-403090Y19400D01*
Y18790D01*
X-402990Y18100D01*
Y1900D01*
X-403090Y1210D01*
Y600D01*
X-403300Y-10D01*
X-403400Y-590D01*
X-404010Y-2400D01*
X-404290Y-2900D01*
X-404590Y-3490D01*
X-404900Y-4000D01*
X-405300Y-4600D01*
X-405710Y-5090D01*
X-406090Y-5490D01*
X-406500Y-6000D01*
X-407010Y-6410D01*
X-407410Y-6790D01*
X-407890Y-7200D01*
X-408500Y-7600D01*
X-409010Y-7910D01*
X-409600Y-8210D01*
X-410100Y-8490D01*
X-411910Y-9100D01*
X-412490Y-9200D01*
X-413100Y-9410D01*
X-413710D01*
X-414400Y-9510D01*
X-465600D01*
X-466290Y-9410D01*
X-466900D01*
X-467510Y-9200D01*
X-468090Y-9100D01*
X-469900Y-8490D01*
X-470400Y-8210D01*
X-470990Y-7910D01*
X-471500Y-7600D01*
X-472110Y-7200D01*
X-472590Y-6790D01*
X-472990Y-6410D01*
X-473500Y-6000D01*
X-473910Y-5490D01*
X-474290Y-5090D01*
X-474700Y-4600D01*
X-475100Y-4000D01*
X-475410Y-3490D01*
X-475710Y-2900D01*
X-475990Y-2400D01*
X-476600Y-590D01*
X-476700Y-10D01*
X-476910Y600D01*
Y1210D01*
X-477010Y1900D01*
Y18100D01*
X-476910Y18790D01*
Y19400D01*
X-476700Y20010D01*
X-476600Y20590D01*
X-475990Y22400D01*
X-475710Y22900D01*
X-475410Y23490D01*
X-475100Y24000D01*
X-474700Y24600D01*
X-474290Y25090D01*
X-473910Y25490D01*
X-473500Y26000D01*
X-472990Y26410D01*
X-472590Y26790D01*
X-472110Y27200D01*
X-471500Y27600D01*
X-470990Y27910D01*
X-470400Y28210D01*
X-469900Y28490D01*
X-468090Y29100D01*
X-467510Y29200D01*
X-466900Y29410D01*
X-466290D01*
X-465600Y29510D01*
G37*
G36*
G01Y79510D02*
X-414400D01*
X-413710Y79410D01*
X-413100D01*
X-412490Y79200D01*
X-411910Y79100D01*
X-410100Y78490D01*
X-409600Y78210D01*
X-409010Y77910D01*
X-408500Y77600D01*
X-407890Y77200D01*
X-407410Y76790D01*
X-407010Y76410D01*
X-406500Y76000D01*
X-406090Y75490D01*
X-405710Y75090D01*
X-405300Y74600D01*
X-404900Y74000D01*
X-404590Y73490D01*
X-404290Y72900D01*
X-404010Y72400D01*
X-403400Y70590D01*
X-403300Y70010D01*
X-403090Y69400D01*
Y68790D01*
X-402990Y68100D01*
Y51900D01*
X-403090Y51210D01*
Y50600D01*
X-403300Y49990D01*
X-403400Y49410D01*
X-404010Y47600D01*
X-404290Y47100D01*
X-404590Y46510D01*
X-404900Y46000D01*
X-405300Y45400D01*
X-405710Y44910D01*
X-406090Y44510D01*
X-406500Y44000D01*
X-407010Y43590D01*
X-407410Y43210D01*
X-407890Y42800D01*
X-408500Y42400D01*
X-409010Y42090D01*
X-409600Y41790D01*
X-410100Y41510D01*
X-411910Y40900D01*
X-412490Y40800D01*
X-413100Y40590D01*
X-413710D01*
X-414400Y40490D01*
X-465600D01*
X-466290Y40590D01*
X-466900D01*
X-467510Y40800D01*
X-468090Y40900D01*
X-469900Y41510D01*
X-470400Y41790D01*
X-470990Y42090D01*
X-471500Y42400D01*
X-472110Y42800D01*
X-472590Y43210D01*
X-472990Y43590D01*
X-473500Y44000D01*
X-473910Y44510D01*
X-474290Y44910D01*
X-474700Y45400D01*
X-475100Y46000D01*
X-475410Y46510D01*
X-475710Y47100D01*
X-475990Y47600D01*
X-476600Y49410D01*
X-476700Y49990D01*
X-476910Y50600D01*
Y51210D01*
X-477010Y51900D01*
Y68100D01*
X-476910Y68790D01*
Y69400D01*
X-476700Y70010D01*
X-476600Y70590D01*
X-475990Y72400D01*
X-475710Y72900D01*
X-475410Y73490D01*
X-475100Y74000D01*
X-474700Y74600D01*
X-474290Y75090D01*
X-473910Y75490D01*
X-473500Y76000D01*
X-472990Y76410D01*
X-472590Y76790D01*
X-472110Y77200D01*
X-471500Y77600D01*
X-470990Y77910D01*
X-470400Y78210D01*
X-469900Y78490D01*
X-468090Y79100D01*
X-467510Y79200D01*
X-466900Y79410D01*
X-466290D01*
X-465600Y79510D01*
G37*
G36*
G01Y129510D02*
X-414400D01*
X-413710Y129410D01*
X-413100D01*
X-412490Y129200D01*
X-411910Y129100D01*
X-410100Y128490D01*
X-409600Y128210D01*
X-409010Y127910D01*
X-408500Y127600D01*
X-407890Y127200D01*
X-407410Y126790D01*
X-407010Y126410D01*
X-406500Y126000D01*
X-406090Y125490D01*
X-405710Y125090D01*
X-405300Y124600D01*
X-404900Y124000D01*
X-404590Y123490D01*
X-404290Y122900D01*
X-404010Y122400D01*
X-403400Y120590D01*
X-403300Y120010D01*
X-403090Y119400D01*
Y118790D01*
X-402990Y118100D01*
Y101900D01*
X-403090Y101210D01*
Y100600D01*
X-403300Y99990D01*
X-403400Y99410D01*
X-404010Y97600D01*
X-404290Y97100D01*
X-404590Y96510D01*
X-404900Y96000D01*
X-405300Y95400D01*
X-405710Y94910D01*
X-406090Y94510D01*
X-406500Y94000D01*
X-407010Y93590D01*
X-407410Y93210D01*
X-407890Y92800D01*
X-408500Y92400D01*
X-409010Y92090D01*
X-409600Y91790D01*
X-410100Y91510D01*
X-411910Y90900D01*
X-412490Y90800D01*
X-413100Y90590D01*
X-413710D01*
X-414400Y90490D01*
X-465600D01*
X-466290Y90590D01*
X-466900D01*
X-467510Y90800D01*
X-468090Y90900D01*
X-469900Y91510D01*
X-470400Y91790D01*
X-470990Y92090D01*
X-471500Y92400D01*
X-472110Y92800D01*
X-472590Y93210D01*
X-472990Y93590D01*
X-473500Y94000D01*
X-473910Y94510D01*
X-474290Y94910D01*
X-474700Y95400D01*
X-475100Y96000D01*
X-475410Y96510D01*
X-475710Y97100D01*
X-475990Y97600D01*
X-476600Y99410D01*
X-476700Y99990D01*
X-476910Y100600D01*
Y101210D01*
X-477010Y101900D01*
Y118100D01*
X-476910Y118790D01*
Y119400D01*
X-476700Y120010D01*
X-476600Y120590D01*
X-475990Y122400D01*
X-475710Y122900D01*
X-475410Y123490D01*
X-475100Y124000D01*
X-474700Y124600D01*
X-474290Y125090D01*
X-473910Y125490D01*
X-473500Y126000D01*
X-472990Y126410D01*
X-472590Y126790D01*
X-472110Y127200D01*
X-471500Y127600D01*
X-470990Y127910D01*
X-470400Y128210D01*
X-469900Y128490D01*
X-468090Y129100D01*
X-467510Y129200D01*
X-466900Y129410D01*
X-466290D01*
X-465600Y129510D01*
G37*
G36*
G01Y179510D02*
X-414400D01*
X-413710Y179410D01*
X-413100D01*
X-412490Y179200D01*
X-411910Y179100D01*
X-410100Y178490D01*
X-409600Y178210D01*
X-409010Y177910D01*
X-408500Y177600D01*
X-407890Y177200D01*
X-407410Y176790D01*
X-407010Y176410D01*
X-406500Y176000D01*
X-406090Y175490D01*
X-405710Y175090D01*
X-405300Y174600D01*
X-404900Y174000D01*
X-404590Y173490D01*
X-404290Y172900D01*
X-404010Y172400D01*
X-403400Y170590D01*
X-403300Y170010D01*
X-403090Y169400D01*
Y168790D01*
X-402990Y168100D01*
Y151900D01*
X-403090Y151210D01*
Y150600D01*
X-403300Y149990D01*
X-403400Y149410D01*
X-404010Y147600D01*
X-404290Y147100D01*
X-404590Y146510D01*
X-404900Y146000D01*
X-405300Y145400D01*
X-405710Y144910D01*
X-406090Y144510D01*
X-406500Y144000D01*
X-407010Y143590D01*
X-407410Y143210D01*
X-407890Y142800D01*
X-408500Y142400D01*
X-409010Y142090D01*
X-409600Y141790D01*
X-410100Y141510D01*
X-411910Y140900D01*
X-412490Y140800D01*
X-413100Y140590D01*
X-413710D01*
X-414400Y140490D01*
X-465600D01*
X-466290Y140590D01*
X-466900D01*
X-467510Y140800D01*
X-468090Y140900D01*
X-469900Y141510D01*
X-470400Y141790D01*
X-470990Y142090D01*
X-471500Y142400D01*
X-472110Y142800D01*
X-472590Y143210D01*
X-472990Y143590D01*
X-473500Y144000D01*
X-473910Y144510D01*
X-474290Y144910D01*
X-474700Y145400D01*
X-475100Y146000D01*
X-475410Y146510D01*
X-475710Y147100D01*
X-475990Y147600D01*
X-476600Y149410D01*
X-476700Y149990D01*
X-476910Y150600D01*
Y151210D01*
X-477010Y151900D01*
Y168100D01*
X-476910Y168790D01*
Y169400D01*
X-476700Y170010D01*
X-476600Y170590D01*
X-475990Y172400D01*
X-475710Y172900D01*
X-475410Y173490D01*
X-475100Y174000D01*
X-474700Y174600D01*
X-474290Y175090D01*
X-473910Y175490D01*
X-473500Y176000D01*
X-472990Y176410D01*
X-472590Y176790D01*
X-472110Y177200D01*
X-471500Y177600D01*
X-470990Y177910D01*
X-470400Y178210D01*
X-469900Y178490D01*
X-468090Y179100D01*
X-467510Y179200D01*
X-466900Y179410D01*
X-466290D01*
X-465600Y179510D01*
G37*
G36*
G01Y229510D02*
X-414400D01*
X-413710Y229410D01*
X-413100D01*
X-412490Y229200D01*
X-411910Y229100D01*
X-410100Y228490D01*
X-409600Y228210D01*
X-409010Y227910D01*
X-408500Y227600D01*
X-407890Y227200D01*
X-407410Y226790D01*
X-407010Y226410D01*
X-406500Y226000D01*
X-406090Y225490D01*
X-405710Y225090D01*
X-405300Y224600D01*
X-404900Y224000D01*
X-404590Y223490D01*
X-404290Y222900D01*
X-404010Y222400D01*
X-403400Y220590D01*
X-403300Y220010D01*
X-403090Y219400D01*
Y218790D01*
X-402990Y218100D01*
Y201900D01*
X-403090Y201210D01*
Y200600D01*
X-403300Y199990D01*
X-403400Y199410D01*
X-404010Y197600D01*
X-404290Y197100D01*
X-404590Y196510D01*
X-404900Y196000D01*
X-405300Y195400D01*
X-405710Y194910D01*
X-406090Y194510D01*
X-406500Y194000D01*
X-407010Y193590D01*
X-407410Y193210D01*
X-407890Y192800D01*
X-408500Y192400D01*
X-409010Y192090D01*
X-409600Y191790D01*
X-410100Y191510D01*
X-411910Y190900D01*
X-412490Y190800D01*
X-413100Y190590D01*
X-413710D01*
X-414400Y190490D01*
X-465600D01*
X-466290Y190590D01*
X-466900D01*
X-467510Y190800D01*
X-468090Y190900D01*
X-469900Y191510D01*
X-470400Y191790D01*
X-470990Y192090D01*
X-471500Y192400D01*
X-472110Y192800D01*
X-472590Y193210D01*
X-472990Y193590D01*
X-473500Y194000D01*
X-473910Y194510D01*
X-474290Y194910D01*
X-474700Y195400D01*
X-475100Y196000D01*
X-475410Y196510D01*
X-475710Y197100D01*
X-475990Y197600D01*
X-476600Y199410D01*
X-476700Y199990D01*
X-476910Y200600D01*
Y201210D01*
X-477010Y201900D01*
Y218100D01*
X-476910Y218790D01*
Y219400D01*
X-476700Y220010D01*
X-476600Y220590D01*
X-475990Y222400D01*
X-475710Y222900D01*
X-475410Y223490D01*
X-475100Y224000D01*
X-474700Y224600D01*
X-474290Y225090D01*
X-473910Y225490D01*
X-473500Y226000D01*
X-472990Y226410D01*
X-472590Y226790D01*
X-472110Y227200D01*
X-471500Y227600D01*
X-470990Y227910D01*
X-470400Y228210D01*
X-469900Y228490D01*
X-468090Y229100D01*
X-467510Y229200D01*
X-466900Y229410D01*
X-466290D01*
X-465600Y229510D01*
G37*
G36*
G01Y279510D02*
X-414400D01*
X-413710Y279410D01*
X-413100D01*
X-412490Y279200D01*
X-411910Y279100D01*
X-410100Y278490D01*
X-409600Y278210D01*
X-409010Y277910D01*
X-408500Y277600D01*
X-407890Y277200D01*
X-407410Y276790D01*
X-407010Y276410D01*
X-406500Y276000D01*
X-406090Y275490D01*
X-405710Y275090D01*
X-405300Y274600D01*
X-404900Y274000D01*
X-404590Y273490D01*
X-404290Y272900D01*
X-404010Y272400D01*
X-403400Y270590D01*
X-403300Y270010D01*
X-403090Y269400D01*
Y268790D01*
X-402990Y268100D01*
Y251900D01*
X-403090Y251210D01*
Y250600D01*
X-403300Y249990D01*
X-403400Y249410D01*
X-404010Y247600D01*
X-404290Y247100D01*
X-404590Y246510D01*
X-404900Y246000D01*
X-405300Y245400D01*
X-405710Y244910D01*
X-406090Y244510D01*
X-406500Y244000D01*
X-407010Y243590D01*
X-407410Y243210D01*
X-407890Y242800D01*
X-408500Y242400D01*
X-409010Y242090D01*
X-409600Y241790D01*
X-410100Y241510D01*
X-411910Y240900D01*
X-412490Y240800D01*
X-413100Y240590D01*
X-413710D01*
X-414400Y240490D01*
X-465600D01*
X-466290Y240590D01*
X-466900D01*
X-467510Y240800D01*
X-468090Y240900D01*
X-469900Y241510D01*
X-470400Y241790D01*
X-470990Y242090D01*
X-471500Y242400D01*
X-472110Y242800D01*
X-472590Y243210D01*
X-472990Y243590D01*
X-473500Y244000D01*
X-473910Y244510D01*
X-474290Y244910D01*
X-474700Y245400D01*
X-475100Y246000D01*
X-475410Y246510D01*
X-475710Y247100D01*
X-475990Y247600D01*
X-476600Y249410D01*
X-476700Y249990D01*
X-476910Y250600D01*
Y251210D01*
X-477010Y251900D01*
Y268100D01*
X-476910Y268790D01*
Y269400D01*
X-476700Y270010D01*
X-476600Y270590D01*
X-475990Y272400D01*
X-475710Y272900D01*
X-475410Y273490D01*
X-475100Y274000D01*
X-474700Y274600D01*
X-474290Y275090D01*
X-473910Y275490D01*
X-473500Y276000D01*
X-472990Y276410D01*
X-472590Y276790D01*
X-472110Y277200D01*
X-471500Y277600D01*
X-470990Y277910D01*
X-470400Y278210D01*
X-469900Y278490D01*
X-468090Y279100D01*
X-467510Y279200D01*
X-466900Y279410D01*
X-466290D01*
X-465600Y279510D01*
G37*
G36*
G01X14400D02*
X65600D01*
X66290Y279410D01*
X66900D01*
X67510Y279200D01*
X68090Y279100D01*
X69900Y278490D01*
X70400Y278210D01*
X70990Y277910D01*
X71500Y277600D01*
X72110Y277200D01*
X72590Y276790D01*
X72990Y276410D01*
X73500Y276000D01*
X73910Y275490D01*
X74290Y275090D01*
X74700Y274600D01*
X75100Y274000D01*
X75410Y273490D01*
X75710Y272900D01*
X75990Y272400D01*
X76600Y270590D01*
X76700Y270010D01*
X76910Y269400D01*
Y268790D01*
X77010Y268100D01*
Y251900D01*
X76910Y251210D01*
Y250600D01*
X76700Y249990D01*
X76600Y249410D01*
X75990Y247600D01*
X75710Y247100D01*
X75410Y246510D01*
X75100Y246000D01*
X74700Y245400D01*
X74290Y244910D01*
X73910Y244510D01*
X73500Y244000D01*
X72990Y243590D01*
X72590Y243210D01*
X72110Y242800D01*
X71500Y242400D01*
X70990Y242090D01*
X70400Y241790D01*
X69900Y241510D01*
X68090Y240900D01*
X67510Y240800D01*
X66900Y240590D01*
X66290D01*
X65600Y240490D01*
X14400D01*
X13710Y240590D01*
X13100D01*
X12490Y240800D01*
X11910Y240900D01*
X10100Y241510D01*
X9600Y241790D01*
X9010Y242090D01*
X8500Y242400D01*
X7890Y242800D01*
X7410Y243210D01*
X7010Y243590D01*
X6500Y244000D01*
X6090Y244510D01*
X5710Y244910D01*
X5300Y245400D01*
X4900Y246000D01*
X4590Y246510D01*
X4290Y247100D01*
X4010Y247600D01*
X3400Y249410D01*
X3300Y249990D01*
X3090Y250600D01*
Y251210D01*
X2990Y251900D01*
Y268100D01*
X3090Y268790D01*
Y269400D01*
X3300Y270010D01*
X3400Y270590D01*
X4010Y272400D01*
X4290Y272900D01*
X4590Y273490D01*
X4900Y274000D01*
X5300Y274600D01*
X5710Y275090D01*
X6090Y275490D01*
X6500Y276000D01*
X7010Y276410D01*
X7410Y276790D01*
X7890Y277200D01*
X8500Y277600D01*
X9010Y277910D01*
X9600Y278210D01*
X10100Y278490D01*
X11910Y279100D01*
X12490Y279200D01*
X13100Y279410D01*
X13710D01*
X14400Y279510D01*
G37*
G36*
G01Y229510D02*
X65600D01*
X66290Y229410D01*
X66900D01*
X67510Y229200D01*
X68090Y229100D01*
X69900Y228490D01*
X70400Y228210D01*
X70990Y227910D01*
X71500Y227600D01*
X72110Y227200D01*
X72590Y226790D01*
X72990Y226410D01*
X73500Y226000D01*
X73910Y225490D01*
X74290Y225090D01*
X74700Y224600D01*
X75100Y224000D01*
X75410Y223490D01*
X75710Y222900D01*
X75990Y222400D01*
X76600Y220590D01*
X76700Y220010D01*
X76910Y219400D01*
Y218790D01*
X77010Y218100D01*
Y201900D01*
X76910Y201210D01*
Y200600D01*
X76700Y199990D01*
X76600Y199410D01*
X75990Y197600D01*
X75710Y197100D01*
X75410Y196510D01*
X75100Y196000D01*
X74700Y195400D01*
X74290Y194910D01*
X73910Y194510D01*
X73500Y194000D01*
X72990Y193590D01*
X72590Y193210D01*
X72110Y192800D01*
X71500Y192400D01*
X70990Y192090D01*
X70400Y191790D01*
X69900Y191510D01*
X68090Y190900D01*
X67510Y190800D01*
X66900Y190590D01*
X66290D01*
X65600Y190490D01*
X14400D01*
X13710Y190590D01*
X13100D01*
X12490Y190800D01*
X11910Y190900D01*
X10100Y191510D01*
X9600Y191790D01*
X9010Y192090D01*
X8500Y192400D01*
X7890Y192800D01*
X7410Y193210D01*
X7010Y193590D01*
X6500Y194000D01*
X6090Y194510D01*
X5710Y194910D01*
X5300Y195400D01*
X4900Y196000D01*
X4590Y196510D01*
X4290Y197100D01*
X4010Y197600D01*
X3400Y199410D01*
X3300Y199990D01*
X3090Y200600D01*
Y201210D01*
X2990Y201900D01*
Y218100D01*
X3090Y218790D01*
Y219400D01*
X3300Y220010D01*
X3400Y220590D01*
X4010Y222400D01*
X4290Y222900D01*
X4590Y223490D01*
X4900Y224000D01*
X5300Y224600D01*
X5710Y225090D01*
X6090Y225490D01*
X6500Y226000D01*
X7010Y226410D01*
X7410Y226790D01*
X7890Y227200D01*
X8500Y227600D01*
X9010Y227910D01*
X9600Y228210D01*
X10100Y228490D01*
X11910Y229100D01*
X12490Y229200D01*
X13100Y229410D01*
X13710D01*
X14400Y229510D01*
G37*
G36*
G01Y179510D02*
X65600D01*
X66290Y179410D01*
X66900D01*
X67510Y179200D01*
X68090Y179100D01*
X69900Y178490D01*
X70400Y178210D01*
X70990Y177910D01*
X71500Y177600D01*
X72110Y177200D01*
X72590Y176790D01*
X72990Y176410D01*
X73500Y176000D01*
X73910Y175490D01*
X74290Y175090D01*
X74700Y174600D01*
X75100Y174000D01*
X75410Y173490D01*
X75710Y172900D01*
X75990Y172400D01*
X76600Y170590D01*
X76700Y170010D01*
X76910Y169400D01*
Y168790D01*
X77010Y168100D01*
Y151900D01*
X76910Y151210D01*
Y150600D01*
X76700Y149990D01*
X76600Y149410D01*
X75990Y147600D01*
X75710Y147100D01*
X75410Y146510D01*
X75100Y146000D01*
X74700Y145400D01*
X74290Y144910D01*
X73910Y144510D01*
X73500Y144000D01*
X72990Y143590D01*
X72590Y143210D01*
X72110Y142800D01*
X71500Y142400D01*
X70990Y142090D01*
X70400Y141790D01*
X69900Y141510D01*
X68090Y140900D01*
X67510Y140800D01*
X66900Y140590D01*
X66290D01*
X65600Y140490D01*
X14400D01*
X13710Y140590D01*
X13100D01*
X12490Y140800D01*
X11910Y140900D01*
X10100Y141510D01*
X9600Y141790D01*
X9010Y142090D01*
X8500Y142400D01*
X7890Y142800D01*
X7410Y143210D01*
X7010Y143590D01*
X6500Y144000D01*
X6090Y144510D01*
X5710Y144910D01*
X5300Y145400D01*
X4900Y146000D01*
X4590Y146510D01*
X4290Y147100D01*
X4010Y147600D01*
X3400Y149410D01*
X3300Y149990D01*
X3090Y150600D01*
Y151210D01*
X2990Y151900D01*
Y168100D01*
X3090Y168790D01*
Y169400D01*
X3300Y170010D01*
X3400Y170590D01*
X4010Y172400D01*
X4290Y172900D01*
X4590Y173490D01*
X4900Y174000D01*
X5300Y174600D01*
X5710Y175090D01*
X6090Y175490D01*
X6500Y176000D01*
X7010Y176410D01*
X7410Y176790D01*
X7890Y177200D01*
X8500Y177600D01*
X9010Y177910D01*
X9600Y178210D01*
X10100Y178490D01*
X11910Y179100D01*
X12490Y179200D01*
X13100Y179410D01*
X13710D01*
X14400Y179510D01*
G37*
G36*
G01Y129510D02*
X65600D01*
X66290Y129410D01*
X66900D01*
X67510Y129200D01*
X68090Y129100D01*
X69900Y128490D01*
X70400Y128210D01*
X70990Y127910D01*
X71500Y127600D01*
X72110Y127200D01*
X72590Y126790D01*
X72990Y126410D01*
X73500Y126000D01*
X73910Y125490D01*
X74290Y125090D01*
X74700Y124600D01*
X75100Y124000D01*
X75410Y123490D01*
X75710Y122900D01*
X75990Y122400D01*
X76600Y120590D01*
X76700Y120010D01*
X76910Y119400D01*
Y118790D01*
X77010Y118100D01*
Y101900D01*
X76910Y101210D01*
Y100600D01*
X76700Y99990D01*
X76600Y99410D01*
X75990Y97600D01*
X75710Y97100D01*
X75410Y96510D01*
X75100Y96000D01*
X74700Y95400D01*
X74290Y94910D01*
X73910Y94510D01*
X73500Y94000D01*
X72990Y93590D01*
X72590Y93210D01*
X72110Y92800D01*
X71500Y92400D01*
X70990Y92090D01*
X70400Y91790D01*
X69900Y91510D01*
X68090Y90900D01*
X67510Y90800D01*
X66900Y90590D01*
X66290D01*
X65600Y90490D01*
X14400D01*
X13710Y90590D01*
X13100D01*
X12490Y90800D01*
X11910Y90900D01*
X10100Y91510D01*
X9600Y91790D01*
X9010Y92090D01*
X8500Y92400D01*
X7890Y92800D01*
X7410Y93210D01*
X7010Y93590D01*
X6500Y94000D01*
X6090Y94510D01*
X5710Y94910D01*
X5300Y95400D01*
X4900Y96000D01*
X4590Y96510D01*
X4290Y97100D01*
X4010Y97600D01*
X3400Y99410D01*
X3300Y99990D01*
X3090Y100600D01*
Y101210D01*
X2990Y101900D01*
Y118100D01*
X3090Y118790D01*
Y119400D01*
X3300Y120010D01*
X3400Y120590D01*
X4010Y122400D01*
X4290Y122900D01*
X4590Y123490D01*
X4900Y124000D01*
X5300Y124600D01*
X5710Y125090D01*
X6090Y125490D01*
X6500Y126000D01*
X7010Y126410D01*
X7410Y126790D01*
X7890Y127200D01*
X8500Y127600D01*
X9010Y127910D01*
X9600Y128210D01*
X10100Y128490D01*
X11910Y129100D01*
X12490Y129200D01*
X13100Y129410D01*
X13710D01*
X14400Y129510D01*
G37*
G36*
G01Y79510D02*
X65600D01*
X66290Y79410D01*
X66900D01*
X67510Y79200D01*
X68090Y79100D01*
X69900Y78490D01*
X70400Y78210D01*
X70990Y77910D01*
X71500Y77600D01*
X72110Y77200D01*
X72590Y76790D01*
X72990Y76410D01*
X73500Y76000D01*
X73910Y75490D01*
X74290Y75090D01*
X74700Y74600D01*
X75100Y74000D01*
X75410Y73490D01*
X75710Y72900D01*
X75990Y72400D01*
X76600Y70590D01*
X76700Y70010D01*
X76910Y69400D01*
Y68790D01*
X77010Y68100D01*
Y51900D01*
X76910Y51210D01*
Y50600D01*
X76700Y49990D01*
X76600Y49410D01*
X75990Y47600D01*
X75710Y47100D01*
X75410Y46510D01*
X75100Y46000D01*
X74700Y45400D01*
X74290Y44910D01*
X73910Y44510D01*
X73500Y44000D01*
X72990Y43590D01*
X72590Y43210D01*
X72110Y42800D01*
X71500Y42400D01*
X70990Y42090D01*
X70400Y41790D01*
X69900Y41510D01*
X68090Y40900D01*
X67510Y40800D01*
X66900Y40590D01*
X66290D01*
X65600Y40490D01*
X14400D01*
X13710Y40590D01*
X13100D01*
X12490Y40800D01*
X11910Y40900D01*
X10100Y41510D01*
X9600Y41790D01*
X9010Y42090D01*
X8500Y42400D01*
X7890Y42800D01*
X7410Y43210D01*
X7010Y43590D01*
X6500Y44000D01*
X6090Y44510D01*
X5710Y44910D01*
X5300Y45400D01*
X4900Y46000D01*
X4590Y46510D01*
X4290Y47100D01*
X4010Y47600D01*
X3400Y49410D01*
X3300Y49990D01*
X3090Y50600D01*
Y51210D01*
X2990Y51900D01*
Y68100D01*
X3090Y68790D01*
Y69400D01*
X3300Y70010D01*
X3400Y70590D01*
X4010Y72400D01*
X4290Y72900D01*
X4590Y73490D01*
X4900Y74000D01*
X5300Y74600D01*
X5710Y75090D01*
X6090Y75490D01*
X6500Y76000D01*
X7010Y76410D01*
X7410Y76790D01*
X7890Y77200D01*
X8500Y77600D01*
X9010Y77910D01*
X9600Y78210D01*
X10100Y78490D01*
X11910Y79100D01*
X12490Y79200D01*
X13100Y79410D01*
X13710D01*
X14400Y79510D01*
G37*
G36*
G01Y29510D02*
X65600D01*
X66290Y29410D01*
X66900D01*
X67510Y29200D01*
X68090Y29100D01*
X69900Y28490D01*
X70400Y28210D01*
X70990Y27910D01*
X71500Y27600D01*
X72110Y27200D01*
X72590Y26790D01*
X72990Y26410D01*
X73500Y26000D01*
X73910Y25490D01*
X74290Y25090D01*
X74700Y24600D01*
X75100Y24000D01*
X75410Y23490D01*
X75710Y22900D01*
X75990Y22400D01*
X76600Y20590D01*
X76700Y20010D01*
X76910Y19400D01*
Y18790D01*
X77010Y18100D01*
Y1900D01*
X76910Y1210D01*
Y600D01*
X76700Y-10D01*
X76600Y-590D01*
X75990Y-2400D01*
X75710Y-2900D01*
X75410Y-3490D01*
X75100Y-4000D01*
X74700Y-4600D01*
X74290Y-5090D01*
X73910Y-5490D01*
X73500Y-6000D01*
X72990Y-6410D01*
X72590Y-6790D01*
X72110Y-7200D01*
X71500Y-7600D01*
X70990Y-7910D01*
X70400Y-8210D01*
X69900Y-8490D01*
X68090Y-9100D01*
X67510Y-9200D01*
X66900Y-9410D01*
X66290D01*
X65600Y-9510D01*
X14400D01*
X13710Y-9410D01*
X13100D01*
X12490Y-9200D01*
X11910Y-9100D01*
X10100Y-8490D01*
X9600Y-8210D01*
X9010Y-7910D01*
X8500Y-7600D01*
X7890Y-7200D01*
X7410Y-6790D01*
X7010Y-6410D01*
X6500Y-6000D01*
X6090Y-5490D01*
X5710Y-5090D01*
X5300Y-4600D01*
X4900Y-4000D01*
X4590Y-3490D01*
X4290Y-2900D01*
X4010Y-2400D01*
X3400Y-590D01*
X3300Y-10D01*
X3090Y600D01*
Y1210D01*
X2990Y1900D01*
Y18100D01*
X3090Y18790D01*
Y19400D01*
X3300Y20010D01*
X3400Y20590D01*
X4010Y22400D01*
X4290Y22900D01*
X4590Y23490D01*
X4900Y24000D01*
X5300Y24600D01*
X5710Y25090D01*
X6090Y25490D01*
X6500Y26000D01*
X7010Y26410D01*
X7410Y26790D01*
X7890Y27200D01*
X8500Y27600D01*
X9010Y27910D01*
X9600Y28210D01*
X10100Y28490D01*
X11910Y29100D01*
X12490Y29200D01*
X13100Y29410D01*
X13710D01*
X14400Y29510D01*
G37*
G36*
G01Y-20490D02*
X65600D01*
X66290Y-20590D01*
X66900D01*
X67510Y-20800D01*
X68090Y-20900D01*
X69900Y-21510D01*
X70400Y-21790D01*
X70990Y-22090D01*
X71500Y-22400D01*
X72110Y-22800D01*
X72590Y-23210D01*
X72990Y-23590D01*
X73500Y-24000D01*
X73910Y-24510D01*
X74290Y-24910D01*
X74700Y-25400D01*
X75100Y-26000D01*
X75410Y-26510D01*
X75710Y-27100D01*
X75990Y-27600D01*
X76600Y-29410D01*
X76700Y-29990D01*
X76910Y-30600D01*
Y-31210D01*
X77010Y-31900D01*
Y-48100D01*
X76910Y-48790D01*
Y-49400D01*
X76700Y-50010D01*
X76600Y-50590D01*
X75990Y-52400D01*
X75710Y-52900D01*
X75410Y-53490D01*
X75100Y-54000D01*
X74700Y-54600D01*
X74290Y-55090D01*
X73910Y-55490D01*
X73500Y-56000D01*
X72990Y-56410D01*
X72590Y-56790D01*
X72110Y-57200D01*
X71500Y-57600D01*
X70990Y-57910D01*
X70400Y-58210D01*
X69900Y-58490D01*
X68090Y-59100D01*
X67510Y-59200D01*
X66900Y-59410D01*
X66290D01*
X65600Y-59510D01*
X14400D01*
X13710Y-59410D01*
X13100D01*
X12490Y-59200D01*
X11910Y-59100D01*
X10100Y-58490D01*
X9600Y-58210D01*
X9010Y-57910D01*
X8500Y-57600D01*
X7890Y-57200D01*
X7410Y-56790D01*
X7010Y-56410D01*
X6500Y-56000D01*
X6090Y-55490D01*
X5710Y-55090D01*
X5300Y-54600D01*
X4900Y-54000D01*
X4590Y-53490D01*
X4290Y-52900D01*
X4010Y-52400D01*
X3400Y-50590D01*
X3300Y-50010D01*
X3090Y-49400D01*
Y-48790D01*
X2990Y-48100D01*
Y-31900D01*
X3090Y-31210D01*
Y-30600D01*
X3300Y-29990D01*
X3400Y-29410D01*
X4010Y-27600D01*
X4290Y-27100D01*
X4590Y-26510D01*
X4900Y-26000D01*
X5300Y-25400D01*
X5710Y-24910D01*
X6090Y-24510D01*
X6500Y-24000D01*
X7010Y-23590D01*
X7410Y-23210D01*
X7890Y-22800D01*
X8500Y-22400D01*
X9010Y-22090D01*
X9600Y-21790D01*
X10100Y-21510D01*
X11910Y-20900D01*
X12490Y-20800D01*
X13100Y-20590D01*
X13710D01*
X14400Y-20490D01*
G37*
G36*
G01Y-70490D02*
X65600D01*
X66290Y-70590D01*
X66900D01*
X67510Y-70800D01*
X68090Y-70900D01*
X69900Y-71510D01*
X70400Y-71790D01*
X70990Y-72090D01*
X71500Y-72400D01*
X72110Y-72800D01*
X72590Y-73210D01*
X72990Y-73590D01*
X73500Y-74000D01*
X73910Y-74510D01*
X74290Y-74910D01*
X74700Y-75400D01*
X75100Y-76000D01*
X75410Y-76510D01*
X75710Y-77100D01*
X75990Y-77600D01*
X76600Y-79410D01*
X76700Y-79990D01*
X76910Y-80600D01*
Y-81210D01*
X77010Y-81900D01*
Y-98100D01*
X76910Y-98790D01*
Y-99400D01*
X76700Y-100010D01*
X76600Y-100590D01*
X75990Y-102400D01*
X75710Y-102900D01*
X75410Y-103490D01*
X75100Y-104000D01*
X74700Y-104600D01*
X74290Y-105090D01*
X73910Y-105490D01*
X73500Y-106000D01*
X72990Y-106410D01*
X72590Y-106790D01*
X72110Y-107200D01*
X71500Y-107600D01*
X70990Y-107910D01*
X70400Y-108210D01*
X69900Y-108490D01*
X68090Y-109100D01*
X67510Y-109200D01*
X66900Y-109410D01*
X66290D01*
X65600Y-109510D01*
X14400D01*
X13710Y-109410D01*
X13100D01*
X12490Y-109200D01*
X11910Y-109100D01*
X10100Y-108490D01*
X9600Y-108210D01*
X9010Y-107910D01*
X8500Y-107600D01*
X7890Y-107200D01*
X7410Y-106790D01*
X7010Y-106410D01*
X6500Y-106000D01*
X6090Y-105490D01*
X5710Y-105090D01*
X5300Y-104600D01*
X4900Y-104000D01*
X4590Y-103490D01*
X4290Y-102900D01*
X4010Y-102400D01*
X3400Y-100590D01*
X3300Y-100010D01*
X3090Y-99400D01*
Y-98790D01*
X2990Y-98100D01*
Y-81900D01*
X3090Y-81210D01*
Y-80600D01*
X3300Y-79990D01*
X3400Y-79410D01*
X4010Y-77600D01*
X4290Y-77100D01*
X4590Y-76510D01*
X4900Y-76000D01*
X5300Y-75400D01*
X5710Y-74910D01*
X6090Y-74510D01*
X6500Y-74000D01*
X7010Y-73590D01*
X7410Y-73210D01*
X7890Y-72800D01*
X8500Y-72400D01*
X9010Y-72090D01*
X9600Y-71790D01*
X10100Y-71510D01*
X11910Y-70900D01*
X12490Y-70800D01*
X13100Y-70590D01*
X13710D01*
X14400Y-70490D01*
G37*
G54D28*
X-620000Y1628750D03*
Y2121250D03*
G54D19*
X-1830000Y75800D03*
Y384200D03*
X-565000Y-759200D03*
X-200000D03*
X-565000Y-450800D03*
X-200000D03*
X-295000Y894200D03*
Y585800D03*
X225000Y-1589200D03*
X265000Y-784200D03*
X225000Y-1280800D03*
X265000Y-475800D03*
X60000Y585800D03*
Y894200D03*
X610000Y-310800D03*
Y-619200D03*
X1235000Y-325800D03*
Y-634200D03*
X2305000Y-1325800D03*
Y-1634200D03*
G54D37*
X1030000Y-7500D03*
Y137500D03*
G54D38*
X997500Y482500D03*
Y627500D03*
X1132500Y482500D03*
Y627500D03*
G54D29*
X-584000Y2005000D03*
Y1940000D03*
Y1875000D03*
Y1810000D03*
Y1745000D03*
G54D39*
X990000Y555000D03*
X1140000D03*
M02*
