G04 ================== begin FILE IDENTIFICATION RECORD ==================*
G04 Layout Name:  C:/Users/valen/Desktop/CONSEGNA/Allegro/BAROTECH.brd*
G04 Film Name:    TOP*
G04 File Format:  Gerber RS274X*
G04 File Origin:  Cadence Allegro 17.2-S081*
G04 Origin Date:  Wed Jan 24 20:09:21 2024*
G04 *
G04 Layer:  VIA CLASS/TOP*
G04 Layer:  PIN/TOP*
G04 Layer:  ETCH/TOP*
G04 Layer:  BOARD GEOMETRY/DESIGN_OUTLINE*
G04 *
G04 Offset:    (0.0000 0.0000)*
G04 Mirror:    No*
G04 Mode:      Positive*
G04 Rotation:  0*
G04 FullContactRelief:  No*
G04 UndefLineWidth:     0.0100*
G04 ================== end FILE IDENTIFICATION RECORD ====================*
%FSLAX25Y25*MOMM*%
%IR0*IPPOS*OFA0.00000B0.00000*MIA0B0*SFA1.00000B1.00000*%
%AMMACRO11*
4,1,40,.1349,.3462,
.1349,-.3462,
.134393,-.352064,
.132875,-.357751,
.130392,-.363088,
.127021,-.367913,
.122863,-.372079,
.118044,-.37546,
.112712,-.377953,
.107028,-.379482,
.1013,-.38,
-.1013,-.38,
-.107161,-.379458,
-.112839,-.377906,
-.118161,-.375392,
-.122966,-.371992,
-.127107,-.367809,
-.13046,-.362971,
-.132921,-.357624,
-.134416,-.351931,
-.1349,-.3462,
-.1349,.3462,
-.134393,.352064,
-.132875,.357751,
-.130392,.363088,
-.127021,.367913,
-.122863,.372079,
-.118044,.37546,
-.112712,.377953,
-.107028,.379482,
-.1013,.38,
.1013,.38,
.107161,.379458,
.112839,.377906,
.118161,.375392,
.122966,.371992,
.127107,.367809,
.13046,.362971,
.132921,.357624,
.134416,.351931,
.1349,.3462,
0.0*
%
%ADD11MACRO11*%
%ADD41R,.3X1.4*%
%ADD14R,1.3X.9*%
%ADD37R,1.4X.75*%
%ADD10C,.6*%
%ADD29R,1.38X.45*%
%ADD43R,.5001X.5001*%
%AMMACRO25*
4,1,44,.125,.2499,
.125,-.2499,
.124286,-.25856,
.12208,-.266964,
.118448,-.274858,
.1135,-.282001,
.107387,-.288176,
.100294,-.293196,
.092438,-.296908,
.084056,-.299199,
.075404,-.3,
.0749,-.3,
-.0749,-.3,
-.08356,-.299286,
-.091964,-.29708,
-.099858,-.293448,
-.107001,-.2885,
-.113176,-.282387,
-.118196,-.275294,
-.121908,-.267438,
-.124199,-.259056,
-.125,-.250404,
-.125,-.2499,
-.125,.2499,
-.124286,.25856,
-.12208,.266964,
-.118448,.274858,
-.1135,.282001,
-.107387,.288176,
-.100294,.293196,
-.092438,.296908,
-.084056,.299199,
-.075404,.3,
-.0749,.3,
.0749,.3,
.08356,.299286,
.091964,.29708,
.099858,.293448,
.107001,.2885,
.113176,.282387,
.118196,.275294,
.121908,.267438,
.124199,.259056,
.125,.250404,
.125,.2499,
0.0*
%
%ADD25MACRO25*%
%AMMACRO31*
4,1,40,.2751,.4826,
.2751,-.4826,
.27297,-.506495,
.266723,-.529657,
.256548,-.551383,
.242756,-.571011,
.225765,-.587947,
.206091,-.601675,
.184332,-.611777,
.16115,-.617948,
.1374,-.62,
-.1374,-.62,
-.1613,-.617922,
-.184475,-.611725,
-.206223,-.601599,
-.225882,-.587849,
-.242854,-.570895,
-.256625,-.551251,
-.266775,-.529514,
-.272996,-.506345,
-.2751,-.4826,
-.2751,.4826,
-.27297,.506495,
-.266723,.529657,
-.256548,.551383,
-.242756,.571011,
-.225765,.587947,
-.206091,.601675,
-.184332,.611777,
-.16115,.617948,
-.1374,.62,
.1374,.62,
.1613,.617922,
.184475,.611725,
.206223,.601599,
.225882,.587849,
.242854,.570895,
.256625,.551251,
.266775,.529514,
.272996,.506345,
.2751,.4826,
0.0*
%
%ADD31MACRO31*%
%ADD44R,1.4X2.1*%
%ADD35R,1.3X1.05*%
%ADD34R,1.5X1.4*%
%ADD19R,2.81X1.32*%
%ADD39R,.7X.5*%
%ADD30R,1.41X1.91*%
%ADD12R,1.32X2.81*%
%ADD40R,2.72X1.16*%
%ADD38R,.55X.4*%
%ADD36R,.54X.6*%
%ADD28R,2.1X1.475*%
%ADD15C,1.06*%
%ADD13R,2.72X1.09*%
%ADD22O,2.416X1.208*%
%ADD20R,1.09X2.72*%
%AMMACRO27*
4,1,44,-.2499,.125,
.2499,.125,
.25856,.124286,
.266964,.12208,
.274858,.118448,
.282001,.1135,
.288176,.107387,
.293196,.100294,
.296908,.092438,
.299199,.084056,
.3,.075404,
.3,.0749,
.3,-.0749,
.299286,-.08356,
.29708,-.091964,
.293448,-.099858,
.2885,-.107001,
.282387,-.113176,
.275294,-.118196,
.267438,-.121908,
.259056,-.124199,
.250404,-.125,
.2499,-.125,
-.2499,-.125,
-.25856,-.124286,
-.266964,-.12208,
-.274858,-.118448,
-.282001,-.1135,
-.288176,-.107387,
-.293196,-.100294,
-.296908,-.092438,
-.299199,-.084056,
-.3,-.075404,
-.3,-.0749,
-.3,.0749,
-.299286,.08356,
-.29708,.091964,
-.293448,.099858,
-.2885,.107001,
-.282387,.113176,
-.275294,.118196,
-.267438,.121908,
-.259056,.124199,
-.250404,.125,
-.2499,.125,
0.0*
%
%ADD27MACRO27*%
%ADD24R,.65X.7*%
%ADD21R,1.39X2.72*%
%ADD32C,1.308*%
%ADD17R,.275X.25*%
%ADD26R,3.4501X3.4501*%
%ADD23R,1.9X1.375*%
%ADD18R,.25X.275*%
%ADD16R,1.06X1.06*%
%ADD33R,1.308X1.308*%
%ADD42R,.5001X.8999*%
%ADD45C,.15*%
%ADD46C,.25*%
%ADD47C,.01*%
G75*
%LPD*%
G75*
G36*
G01X2071000Y740000D02*
Y790000D01*
X2515000D01*
Y520000D01*
X2251000D01*
Y320000D01*
X2515000D01*
Y50000D01*
X2251000D01*
Y-150000D01*
X2515000D01*
Y-650000D01*
X2025000D01*
Y-560000D01*
X2465000D01*
Y-420000D01*
X2025000D01*
Y-370000D01*
X2465000D01*
Y-200000D01*
X2201000D01*
Y100000D01*
X2465000D01*
Y270000D01*
X2201000D01*
Y570000D01*
X2465000D01*
Y740000D01*
X2071000D01*
G37*
G54D10*
X-2025000Y-210000D03*
Y-5000D03*
X-2035800Y384200D03*
X-2220000Y1398500D03*
X-2338500D03*
X-1618500Y-1988500D03*
X-1669200Y-2043780D03*
X-1795000Y-2245000D03*
X-1805000Y-2355000D03*
X-1495000Y340000D03*
X-1419980Y345650D03*
X-1580000Y265000D03*
Y190000D03*
X-1830000Y525000D03*
X-1629200Y475000D03*
X-1765000Y680000D03*
X-1558500Y1256500D03*
Y1398500D03*
X-1710000Y1720000D03*
X-1755000Y2265000D03*
X-1271500Y-1988500D03*
X-815000Y-2295000D03*
X-1200000Y-1695000D03*
X-1280000Y-1890000D03*
X-1345040Y342410D03*
X-1280000Y140000D03*
X-984200Y184200D03*
X-1224200Y910800D03*
X-1085000Y565000D03*
X-1350000Y1105000D03*
X-245000Y-2085290D03*
X-250000Y-2305000D03*
X-255000Y-2200000D03*
Y-2410000D03*
X-665000Y-2295000D03*
X-540000Y-2550200D03*
X-537500Y-2402500D03*
X-245000Y-1800000D03*
X-250000Y-1935000D03*
X-300000Y-1470000D03*
X-180000D03*
X-310000Y-905000D03*
X-200000Y-915000D03*
X-680000Y-900000D03*
X-445000D03*
X-565000Y-910000D03*
X-230000Y-320000D03*
X-202790Y195150D03*
X-322790D03*
X-202790Y80150D03*
X-322790D03*
X-202790Y-34850D03*
X-322790D03*
X-165000Y435000D03*
X-532160Y277830D03*
X-740000Y150000D03*
X-410000Y1020000D03*
X-295000Y1025000D03*
X-165000D03*
X-695000Y1990000D03*
X25000Y-1589200D03*
X430000D03*
X-60000Y-915000D03*
X265000Y-910000D03*
X165000D03*
X395000D03*
X82500Y-280000D03*
X-120000D03*
X-82790Y195150D03*
Y80150D03*
Y-34850D03*
X-40000Y1030000D03*
X165000Y1035000D03*
X415000Y805000D03*
X295000Y870000D03*
X60000Y1050000D03*
X135000Y1435000D03*
X230000Y1430000D03*
X70800Y2100000D03*
X-60000Y2305000D03*
X70800Y2510000D03*
X997500Y-1022500D03*
X517500Y-847500D03*
X1035000Y-230000D03*
Y-430000D03*
X814200Y-619200D03*
X845000Y-689030D03*
X480000Y-735000D03*
X1030800Y-634200D03*
X1040000Y570000D03*
X904200Y2120800D03*
X865000Y1902500D03*
X1025000Y2305000D03*
X904200Y2484200D03*
X1540800Y-2025000D03*
X1410000Y-2145000D03*
X1420000Y-2270000D03*
X1420400Y-2395400D03*
X1540800Y-1610000D03*
X1235000Y-755000D03*
X1434200Y-634200D03*
X1055000Y650000D03*
X1065000Y2040000D03*
X1267500Y1902500D03*
X2205000Y-2050000D03*
X1920000Y-605000D03*
X1870200Y74990D03*
X1759200Y-139200D03*
X1865000Y430000D03*
Y280000D03*
X1855000Y635000D03*
X2405000Y-2050000D03*
Y-2195000D03*
X2290000Y1545000D03*
Y2020000D03*
G54D20*
X-1558500Y1060000D03*
X-1861500D03*
X-1591500Y1720000D03*
X-1621500Y2265000D03*
X-1296500Y-575000D03*
X-993500D03*
X-988500Y-215000D03*
X-1291500D03*
X-1288500Y1720000D03*
X-1318500Y2265000D03*
X-121500Y-1935000D03*
X181500D03*
X186500Y-2305000D03*
X-116500D03*
X448500Y590000D03*
Y1020000D03*
X751500Y590000D03*
Y1020000D03*
X1458500Y840000D03*
X1761500D03*
G54D11*
X-1420000Y-1988500D03*
X-1470000D03*
X-1520000D03*
Y-1791500D03*
X-1470000D03*
X-1420000D03*
X-1370000Y-1988500D03*
Y-1791500D03*
G54D21*
X-951500Y730000D03*
X-678500D03*
G54D12*
X-1669200Y-2245000D03*
X-1360800D03*
X-1320800Y680000D03*
X-1629200D03*
X-984200Y375000D03*
X-915800Y1105000D03*
X-1224200D03*
X-675800Y375000D03*
X379200Y2305000D03*
X70800D03*
X595800D03*
X904200D03*
X1545800Y-2270000D03*
X1540800Y-1825000D03*
X1525800Y-395000D03*
X1425800Y430000D03*
X1450800Y65000D03*
X1854200Y-2270000D03*
X1849200Y-1825000D03*
X1834200Y-395000D03*
X1734200Y430000D03*
X1759200Y65000D03*
G54D30*
X294500Y-40000D03*
X595500D03*
G54D22*
X-850000Y1480000D03*
Y2270000D03*
G54D13*
X-1630000Y-1566500D03*
Y-1263500D03*
X-750000Y-1566500D03*
X-1230000Y-1571500D03*
X-750000Y-1263500D03*
X-1230000Y-1268500D03*
X1055000Y873500D03*
Y1176500D03*
X1415000Y1153500D03*
Y1456500D03*
G54D40*
X1065000Y1607500D03*
Y1902500D03*
G54D31*
X325000Y1554000D03*
X230000D03*
X135000D03*
Y1786000D03*
X325000D03*
G54D23*
X-850000Y1781250D03*
Y1968750D03*
G54D32*
X840000Y-2275000D03*
G54D14*
X-1445000Y-1890000D03*
G54D41*
X2205000Y-2345000D03*
Y-1905000D03*
X2405000Y-2345000D03*
X2355000D03*
X2305000D03*
X2255000D03*
Y-1905000D03*
X2305000D03*
X2355000D03*
X2405000D03*
G54D42*
X2000000Y-605000D03*
G54D33*
X1040000Y-2275000D03*
G54D24*
X-247500Y-1260000D03*
X-112500D03*
G54D15*
X-1603000Y-928000D03*
X-1730000D03*
X-1603000Y-801000D03*
X-1730000D03*
X-1603000Y-674000D03*
X-1730000D03*
X-1603000Y-547000D03*
X-1730000D03*
X-1603000Y-420000D03*
X935000Y-1480000D03*
Y-1780000D03*
G54D16*
X-1730000Y-420000D03*
G54D34*
X645000Y-1460000D03*
Y-1800000D03*
X1225000Y-1460000D03*
Y-1800000D03*
G54D25*
X-175000Y-155000D03*
X-225000D03*
X-275000D03*
X-325000D03*
X-375000D03*
Y325000D03*
X-325000D03*
X-275000D03*
X-225000D03*
X-175000D03*
X-25000Y-155000D03*
X-75000D03*
X-125000D03*
X-25000Y325000D03*
X-125000D03*
X-75000D03*
G54D43*
X2000000Y-395000D03*
G54D26*
X-200000Y85000D03*
G54D17*
X-1511200Y140000D03*
Y190000D03*
Y240000D03*
X-1358800D03*
Y190000D03*
Y140000D03*
G54D35*
X640000Y-847500D03*
X870000D03*
Y-1022500D03*
X640000D03*
G54D44*
X2290000Y1335000D03*
X1840000D03*
X2290000Y2245000D03*
X1840000D03*
G54D45*
G01X-605000Y-1263500D02*
X-545000Y-1323500D01*
Y-1680000D01*
X-720000Y-1855000D01*
Y-2410000D01*
X-780000Y-2470000D01*
X-1950000D01*
X-1995000Y-2425000D01*
Y-485000D01*
X-1930000Y-420000D01*
X-1730000D01*
G01X1040000Y-2275000D02*
X817300Y-2497700D01*
X-556750D01*
X-559050Y-2500000D01*
X-2090000D01*
X-2145000Y-2445000D01*
Y-195000D01*
X-2275000Y-65000D01*
Y1930000D01*
X-1730000Y2475000D01*
X-450000D01*
X135000Y1890000D01*
Y1885820D01*
G01X-540000Y-2550200D02*
X-2114800D01*
X-2338500Y-2326500D01*
Y1398500D01*
G01X-1730000Y-420000D02*
X-1940000Y-210000D01*
X-2025000D01*
G01X-1830000Y75800D02*
X-1996700D01*
X-2025000Y47500D01*
Y-5000D01*
G01X-1830000Y384200D02*
X-2035800D01*
G01X-275000Y325000D02*
Y375200D01*
X-309800Y410000D01*
X-448320D01*
X-525000Y486680D01*
Y865000D01*
X-615000Y955000D01*
X-740000D01*
X-755000Y970000D01*
Y1250000D01*
X-809980Y1304980D01*
X-1532730D01*
X-1536750Y1309000D01*
X-1580250D01*
X-1584270Y1304980D01*
X-2095020D01*
X-2140000Y1260000D01*
Y-35000D01*
X-2065000Y-110000D01*
X-1462000D01*
X-1432000Y-140000D01*
Y-532000D01*
X-1447000Y-547000D01*
X-1603000D01*
G01Y-674000D02*
X-1464000D01*
X-1395000Y-605000D01*
Y-125000D01*
X-1445000Y-75000D01*
X-2050500D01*
X-2101700Y-23800D01*
Y618300D01*
X-1861500Y858500D01*
Y921500D01*
G01X-225000Y325000D02*
Y375200D01*
X-294800Y445000D01*
X-435000D01*
X-490000Y500000D01*
Y890000D01*
X-600000Y1000000D01*
X-685000D01*
X-700000Y1015000D01*
Y1270000D01*
X-750000Y1320000D01*
Y1330000D01*
X-765000Y1345000D01*
X-2110000D01*
X-2192500Y1262500D01*
Y-37500D01*
X-2080000Y-150000D01*
X-1485000D01*
X-1470000Y-165000D01*
Y-405000D01*
X-1485000Y-420000D01*
X-1603000D01*
G01X-1558500Y1398500D02*
X-2220000D01*
G01X-1520000Y-1988500D02*
X-1618500D01*
G01X-1795000Y-2245000D02*
X-1669200D01*
G01D02*
Y-2319500D01*
X-1704700Y-2355000D01*
X-1805000D01*
G01X-1669200Y-2245000D02*
Y-2043780D01*
G01X-375000Y-155000D02*
Y-205000D01*
X-430000Y-260000D01*
X-711520D01*
X-798000Y-346480D01*
Y-837000D01*
X-956000Y-995000D01*
X-1365500D01*
X-1515500Y-1145000D01*
X-1895000D01*
X-1910000Y-1160000D01*
Y-2415000D01*
X-1895000Y-2430000D01*
X-789500D01*
X-750000Y-2390500D01*
Y-1566500D01*
G01X-1420000Y-1988500D02*
X-1470000D01*
G01D02*
X-1471500D01*
G01X-1420000D02*
Y-2021820D01*
X-1360800Y-2081020D01*
Y-2245000D01*
G01X-1445000Y-1890000D02*
X-1280000D01*
G01X-1200000Y-1695000D02*
X-1252500D01*
X-1262500Y-1705000D01*
X-1402380D01*
X-1420000Y-1722620D01*
Y-1791500D01*
G01D02*
Y-1800000D01*
G01X-1470000Y-1791500D02*
Y-1695000D01*
X-1445000Y-1670000D01*
X-1275000D01*
X-1230000Y-1625000D01*
Y-1571500D01*
G01X-1470000Y-1800000D02*
Y-1791500D01*
G01X-1520000D02*
Y-1705000D01*
X-1545000Y-1680000D01*
X-1591200D01*
X-1630000Y-1641200D01*
Y-1566500D01*
G01X-1520000Y-1795000D02*
Y-1791500D01*
G01X-440000Y-40000D02*
X-590520D01*
X-868000Y-317480D01*
Y-768000D01*
X-895000Y-795000D01*
X-1597000D01*
X-1603000Y-801000D01*
G01X-440000Y-90000D02*
X-591020D01*
X-833000Y-331980D01*
Y-808000D01*
X-953000Y-928000D01*
X-1603000D01*
G01X-325000Y-155000D02*
Y-207500D01*
X-412500Y-295000D01*
X-697020D01*
X-763000Y-360980D01*
Y-851500D01*
X-991500Y-1080000D01*
X-1365000D01*
X-1548500Y-1263500D01*
X-1630000D01*
G01X-1358800Y190000D02*
X-1395050D01*
X-1405050Y180000D01*
X-1455000D01*
X-1495000Y140000D01*
G01D02*
X-1486300D01*
X-1460000Y113700D01*
G01X-1511200Y140000D02*
X-1495000D01*
G01X-1460000Y113700D02*
Y79750D01*
X-1345250Y-35000D01*
X-1315300D01*
X-1291500Y-58800D01*
Y-215000D01*
G01X-1511200Y140000D02*
X-1512450D01*
X-1576650Y75800D01*
X-1830000D01*
G01X-1410000Y113700D02*
Y112450D01*
X-1287550Y-10000D01*
X-1025000D01*
X-988500Y-46500D01*
Y-215000D01*
G01X-1410000Y266300D02*
Y335670D01*
X-1419980Y345650D01*
G01X-1511200Y190000D02*
X-1580000D01*
G01X-1830000Y525000D02*
Y384200D01*
G01X-1460000Y266300D02*
Y267550D01*
X-1495000Y302550D01*
Y340000D01*
G01X-1511200Y240000D02*
X-1555000D01*
X-1580000Y265000D01*
G01X-1765000Y680000D02*
X-1629200D01*
G01D02*
Y475000D01*
G01X-1861500Y921500D02*
Y1060000D01*
G01X-1320800Y680000D02*
Y843000D01*
X-1362800Y885000D01*
X-1825000D01*
X-1861500Y921500D01*
G01X-675800Y300500D02*
Y139200D01*
X-740000Y75000D01*
X-1097500D01*
X-1180000Y157500D01*
Y777520D01*
X-1462480Y1060000D01*
X-1558500D01*
G01D02*
Y1256500D01*
G01X-1591500Y1720000D02*
X-1710000D01*
G01X-1621500Y2265000D02*
X-1755000D01*
G01X-1370000Y-1988500D02*
X-1271500D01*
G01X-1360800Y-2245000D02*
X-865000D01*
X-815000Y-2295000D01*
G01X-1370000Y-1791500D02*
X-1056500D01*
X-831500Y-1566500D01*
X-750000D01*
G01X-275000Y-155000D02*
Y-207500D01*
X-397500Y-330000D01*
X-682520D01*
X-728000Y-375480D01*
Y-866000D01*
X-982000Y-1120000D01*
X-1158500D01*
X-1230000Y-1191500D01*
Y-1268500D01*
G01X-1296500Y-575000D02*
Y-418800D01*
X-1291500Y-413800D01*
Y-215000D01*
G01X-440000Y110000D02*
X-555000D01*
X-880000Y-215000D01*
X-988500D01*
G01X-440000Y60000D02*
X-545000D01*
X-905000Y-300000D01*
Y-405000D01*
X-993500Y-493500D01*
Y-575000D01*
G01X-1358800Y140000D02*
X-1280000D01*
G01X-1358800Y240000D02*
Y276150D01*
X-1345040Y289910D01*
Y342410D01*
G01X-1085000Y565000D02*
X-1011200D01*
X-984200Y538000D01*
Y375000D01*
G01D02*
Y184200D01*
G01X-440000Y160000D02*
X-550000D01*
X-680000Y30000D01*
X-1025750D01*
X-1028250Y27500D01*
X-1071750D01*
X-1074250Y30000D01*
X-1155000D01*
X-1215000Y90000D01*
Y411200D01*
X-1320800Y517000D01*
Y680000D01*
G01X-915800Y1030500D02*
X-1026300Y920000D01*
X-1085000D01*
X-1137500Y867500D01*
Y182510D01*
X-1067860Y112870D01*
X-777130D01*
X-740000Y150000D01*
G01X-1224200Y1105000D02*
Y910800D01*
G01X-951500Y730000D02*
Y886200D01*
X-915800Y921900D01*
Y1030500D01*
G01X-1350000Y1105000D02*
X-1224200D01*
G01X-850000Y1480000D02*
X-910400D01*
X-1150400Y1720000D01*
X-1288500D01*
G01X-915800Y1030500D02*
Y1105000D01*
G01X-850000Y2270000D02*
X-993300D01*
X-998300Y2265000D01*
X-1318500D01*
G01X-130000Y-2305000D02*
X-250000D01*
G01X-255000Y-2410000D02*
X-202500D01*
X-130000Y-2337500D01*
Y-2305000D01*
G01X-255000Y-2200000D02*
X-202500D01*
X-125000Y-2277500D01*
Y-2305000D01*
G01X-121500Y-1935000D02*
Y-2016500D01*
X-190290Y-2085290D01*
X-245000D01*
G01X-665000Y-2295000D02*
Y-2385000D01*
X-580000Y-2470000D01*
X470000D01*
X485000Y-2455000D01*
Y-2095000D01*
X620000Y-1960000D01*
X725000D01*
X1040000Y-2275000D01*
G01X-300000Y-1470000D02*
Y-1535000D01*
X-540000Y-1775000D01*
Y-2347500D01*
X-537500Y-2350000D01*
Y-2402500D01*
G01X2235000Y-1115000D02*
X545000D01*
X500000Y-1160000D01*
Y-1593450D01*
X383450Y-1710000D01*
X-125000D01*
X-247500Y-1587500D01*
Y-1260000D01*
G01X-245000Y-1800000D02*
X-175000D01*
X-121500Y-1853500D01*
Y-1935000D01*
G01D02*
X-250000D01*
G01X-247500Y-1260000D02*
X-300200D01*
X-303700Y-1263500D01*
X-605000D01*
G01D02*
X-750000D01*
G01X-445000Y-900000D02*
Y-840000D01*
X-525800Y-759200D01*
X-565000D01*
G01X-310000Y-905000D02*
Y-825000D01*
X-244200Y-759200D01*
X-200000D01*
G01Y-915000D02*
Y-759200D01*
G01X-565000Y-910000D02*
Y-759200D01*
G01D02*
X-619200D01*
X-680000Y-820000D01*
Y-900000D01*
G01X-112500Y-1260000D02*
Y-1257500D01*
X-385000Y-985000D01*
Y-556600D01*
X-490800Y-450800D01*
G01X-180000Y-1470000D02*
Y-1330000D01*
X-112500Y-1262500D01*
Y-1260000D01*
G01X-200000Y-759200D02*
X-125500D01*
X-45210Y-839490D01*
Y-900210D01*
X-60000Y-915000D01*
G01X-490800Y-450800D02*
X-565000D01*
G01X-225000Y-155000D02*
Y-220000D01*
X-370000Y-365000D01*
X-455000D01*
X-490800Y-400800D01*
Y-450800D01*
G01X-230000Y-320000D02*
X-175000Y-265000D01*
G01X-200000Y-450800D02*
Y-364600D01*
X-175000Y-339600D01*
G01X-435000Y60000D02*
X-440000D01*
G01X-430000Y-40000D02*
X-440000D01*
G01X-425000Y-90000D02*
X-440000D01*
G01X-175000Y325000D02*
Y370000D01*
X-295000Y490000D01*
Y585800D01*
G01X-675800Y300500D02*
Y375000D01*
G01X-440000Y210000D02*
X-464330D01*
G01D02*
X-585300D01*
X-675800Y300500D01*
G01X-532160Y277830D02*
X-464330Y210000D01*
G01X-440000Y260000D02*
Y355000D01*
X-442500Y357500D01*
Y361750D01*
X-565000Y484250D01*
Y550000D01*
X-678500Y663500D01*
Y730000D01*
G01X-295000Y1025000D02*
Y894200D01*
G01X-165000Y1025000D02*
X-202130Y987870D01*
Y987070D01*
X-295000Y894200D01*
G01D02*
X-369500D01*
X-410000Y934700D01*
Y1020000D01*
G01X-584000Y2005000D02*
X-680000D01*
X-695000Y1990000D01*
G01X-584000Y1745000D02*
X-492500D01*
X-422500Y1675000D01*
X248490D01*
X325000Y1751510D01*
G01X-116500Y-2305000D02*
X-125000D01*
G01D02*
X-130000D01*
G01X645000Y-1800000D02*
X640000D01*
X390000Y-2050000D01*
Y-2225000D01*
X310000Y-2305000D01*
X186500D01*
G01X25000Y-1589200D02*
X225000D01*
G01D02*
X430000D01*
G01X645000Y-1460000D02*
Y-1585000D01*
X295000Y-1935000D01*
X181500D01*
G01X265000Y-784200D02*
X269200D01*
X395000Y-910000D01*
G01X265000D02*
Y-784200D01*
G01D02*
X190500D01*
X165000Y-809700D01*
Y-910000D01*
G01X-125000Y-155000D02*
Y-200750D01*
X11480Y-337230D01*
Y-971480D01*
X62500Y-1022500D01*
X640000D01*
G01X225000Y-1280800D02*
X-36700D01*
X-57500Y-1260000D01*
X-112500D01*
G01X-75000Y-155000D02*
Y-205200D01*
X65000Y-345200D01*
Y-935000D01*
X105000Y-975000D01*
X430000D01*
X462500Y-942500D01*
Y-832500D01*
X465000Y-830000D01*
Y-825750D01*
X543250Y-747500D01*
X845000D01*
X870000Y-772500D01*
Y-847500D01*
G01X-175000Y-155000D02*
Y-265000D01*
G01X-120000Y-280000D02*
Y-285000D01*
X-174600Y-339600D01*
X-175000D01*
G01Y-265000D02*
Y-339600D01*
G01X265000Y-475800D02*
Y-387300D01*
X32700Y-155000D01*
X-25000D01*
G01D02*
Y-172500D01*
X82500Y-280000D01*
G01X40000Y160000D02*
X190000D01*
X250000Y220000D01*
X750000D01*
X835000Y305000D01*
X1200000D01*
X1295000Y400000D01*
Y751200D01*
X1383800Y840000D01*
G01X40000Y60000D02*
X196680D01*
X266680Y130000D01*
X725000D01*
X862500Y-7500D01*
X1030000D01*
G01X35000Y60000D02*
X40000D01*
G01Y260000D02*
X690000D01*
X780000Y350000D01*
X1070000D01*
X1132500Y412500D01*
Y482500D01*
G01X30000Y260000D02*
X40000D01*
G01X-75000Y325000D02*
Y400000D01*
X5000Y480000D01*
X227570D01*
X247500Y499930D01*
Y737500D01*
X448500Y938500D01*
Y1020000D01*
G01X-75000Y320000D02*
Y325000D01*
G01X40000Y110000D02*
X190000D01*
X250000Y170000D01*
X765000D01*
X810000Y125000D01*
X927300D01*
X939800Y137500D01*
X1030000D01*
G01X-25000Y325000D02*
Y377500D01*
X22500Y425000D01*
X365000D01*
X448500Y508500D01*
Y590000D01*
G01X-125000Y395000D02*
X-165000Y435000D01*
G01X60000Y585800D02*
X-14500D01*
X-100000Y500300D01*
Y420000D01*
X-125000Y395000D01*
G01Y325000D02*
Y395000D01*
G01Y310000D02*
Y325000D01*
G01X60000Y930000D02*
Y1050000D01*
G01Y930000D02*
X-40000Y1030000D01*
G01X60000Y930000D02*
X165000Y1035000D01*
G01X60000Y894200D02*
Y930000D01*
G01X325000Y1554000D02*
Y952500D01*
X295000Y922500D01*
Y870000D01*
G01X997500Y482500D02*
X892500D01*
X875000Y500000D01*
Y720000D01*
X790000Y805000D01*
X415000D01*
G01X230000Y1554000D02*
Y1430000D01*
G01X135000Y1435000D02*
Y1554000D01*
G01X70800Y2100000D02*
Y2305000D01*
G01X1055000Y1176500D02*
Y1315000D01*
X1040000Y1330000D01*
X746510D01*
X325000Y1751510D01*
G01X595800Y2305000D02*
Y2142000D01*
X325000Y1871200D01*
Y1786000D01*
G01D02*
Y1751510D01*
G01X379200Y2305000D02*
Y2130020D01*
X135000Y1885820D01*
G01D02*
Y1786000D01*
G01D02*
Y1775000D01*
G01X70800Y2510000D02*
Y2305000D01*
G01D02*
X-60000D01*
G01X1035000Y-430000D02*
X950000Y-515000D01*
Y-725000D01*
X1295000Y-1070000D01*
X2190000D01*
X2235000Y-1115000D01*
G01X870000Y-1022500D02*
X997500D01*
G01X640000Y-847500D02*
X517500D01*
G01X684500Y-619200D02*
X814200D01*
G01X845000Y-689030D02*
X754330D01*
X684500Y-619200D01*
G01X480000Y-735000D02*
X595800Y-619200D01*
X610000D01*
G01D02*
X684500D01*
G01X1140000Y555000D02*
X1125680D01*
X1082500Y511820D01*
Y488180D01*
X989320Y395000D01*
X865000D01*
X751500Y508500D01*
Y590000D01*
G01X997500Y627500D02*
X1032500D01*
X1055000Y650000D01*
G01X990000Y555000D02*
X1025000D01*
X1040000Y570000D01*
G01X1132500Y627500D02*
Y667700D01*
X1085200Y715000D01*
X975000D01*
X751500Y938500D01*
Y1020000D01*
G01X904200Y2120800D02*
Y2305000D01*
G01X1065000Y1902500D02*
X865000D01*
G01X904200Y2484200D02*
Y2305000D01*
G01D02*
X1025000D01*
G01X1420000Y-2270000D02*
X1545800D01*
G01X1410000Y-2145000D02*
X1420800D01*
X1545800Y-2270000D01*
G01X1540800Y-2025000D02*
Y-1825000D01*
G01X1545800Y-2270000D02*
X1420400Y-2395400D01*
G01X1225000Y-1460000D02*
X1230000D01*
X1395000Y-1625000D01*
Y-1945000D01*
X1310000Y-2030000D01*
Y-2415000D01*
X1392500Y-2497500D01*
X1807500D01*
X1854200Y-2450800D01*
Y-2344500D01*
G01X1040000Y-2275000D02*
Y-1980000D01*
X1220000Y-1800000D01*
X1225000D01*
G01X1540800Y-1825000D02*
Y-1610000D01*
G01X1761500Y840000D02*
X1880000D01*
X1920000Y800000D01*
Y99440D01*
X1922700Y96740D01*
Y53240D01*
X1920000Y50540D01*
Y-115000D01*
X1842130Y-192870D01*
X1072130D01*
X1035000Y-230000D01*
G01X1434200Y-634200D02*
X1235000D01*
G01D02*
X1030800D01*
G01X1235000D02*
Y-755000D01*
G01X1450800Y65000D02*
X1379200D01*
X1306700Y-7500D01*
X1030000D01*
G01X1468400Y65000D02*
X1450800D01*
G01X1425800Y430000D02*
Y355500D01*
X1207800Y137500D01*
X1030000D01*
G01X1065000Y1607500D02*
Y1527000D01*
X1235000Y1357000D01*
Y1015000D01*
X1383800Y866200D01*
Y840000D01*
G01X1415000Y1153500D02*
Y1076500D01*
X1458500Y1033000D01*
Y840000D01*
G01D02*
X1383800D01*
G01X1132500Y482500D02*
X1180200D01*
X1245000Y547300D01*
Y839700D01*
X1211200Y873500D01*
X1055000D01*
G01X1840000Y2245000D02*
X1570000D01*
X1405000Y2080000D01*
Y1466500D01*
X1415000Y1456500D01*
G01X1840000Y1335000D02*
X1695000D01*
X1573500Y1456500D01*
X1415000D01*
G01X1267500Y1902500D02*
X1065000D01*
G01D02*
Y2040000D01*
G01X2205000Y-1905000D02*
Y-2050000D01*
G01X1854200Y-2270000D02*
Y-2344500D01*
G01X2255000Y-2345000D02*
Y-2435200D01*
X2200200Y-2490000D01*
X1999700D01*
X1854200Y-2344500D01*
G01X2255000Y-1905000D02*
Y-1814800D01*
X2215200Y-1775000D01*
X2105000D01*
X2055000Y-1825000D01*
X1849200D01*
G01D02*
Y-1530800D01*
X2055000Y-1325000D01*
X2143500D01*
X2144300Y-1325800D01*
X2305000D01*
G01X2000000Y-605000D02*
X1920000D01*
G01X1870200Y74990D02*
X1870000D01*
X1860010Y65000D01*
X1759200D01*
G01X1734200Y430000D02*
Y355500D01*
X1816110Y273590D01*
X1858590D01*
X1865000Y280000D01*
G01X1759200Y65000D02*
Y-139200D01*
G01X1865000Y430000D02*
X1734200D01*
G01D02*
Y589200D01*
X1780000Y635000D01*
X1855000D01*
G01Y1335000D02*
X1840000D01*
G01X2405000Y-1905000D02*
Y-2050000D01*
G01Y-2345000D02*
Y-2195000D01*
G01X2355000Y-2345000D02*
X2305000D01*
G01D02*
X2255000D01*
G01X2305000Y-1634200D02*
Y-1764800D01*
X2355000Y-1814800D01*
Y-1905000D01*
G01X2255000D02*
X2305000D01*
G01X2235000Y-1115000D02*
X2305000Y-1185000D01*
Y-1325800D01*
G01X2290000Y1335000D02*
Y1545000D01*
G01Y2245000D02*
Y2020000D01*
G54D18*
X-1460000Y266300D03*
X-1410000D03*
Y113700D03*
X-1460000D03*
G54D27*
X-440000Y-90000D03*
Y-40000D03*
Y10000D03*
Y60000D03*
Y110000D03*
Y160000D03*
Y210000D03*
Y260000D03*
X40000D03*
Y210000D03*
Y160000D03*
Y110000D03*
Y60000D03*
Y10000D03*
Y-40000D03*
Y-90000D03*
G54D36*
X953200Y-320000D03*
X866800D03*
G54D46*
G01X40000Y-90000D02*
X100000D01*
X125000Y-115000D01*
Y-195000D01*
X247500Y-317500D01*
X610000D01*
G01X294500Y-40000D02*
X40000D01*
G01X610000Y-317500D02*
Y-310800D01*
G01Y-317500D02*
X612500Y-320000D01*
X866800D01*
G01D02*
X871800D01*
G01X610000Y-310800D02*
Y-217300D01*
X595500Y-202800D01*
Y-40000D01*
G01X1235000Y-325800D02*
X1013500D01*
X1007700Y-320000D01*
X953200D01*
G01X1525800Y-395000D02*
X1456600Y-325800D01*
X1235000D01*
G01X2000000Y-395000D02*
X1834200D01*
G54D28*
X-620000Y1628750D03*
Y2121250D03*
G54D19*
X-1830000Y75800D03*
Y384200D03*
X-565000Y-759200D03*
X-200000D03*
X-565000Y-450800D03*
X-200000D03*
X-295000Y894200D03*
Y585800D03*
X225000Y-1589200D03*
X265000Y-784200D03*
X225000Y-1280800D03*
X265000Y-475800D03*
X60000Y585800D03*
Y894200D03*
X610000Y-310800D03*
Y-619200D03*
X1235000Y-325800D03*
Y-634200D03*
X2305000Y-1325800D03*
Y-1634200D03*
G54D37*
X1030000Y-7500D03*
Y137500D03*
G54D47*
G01X-2605000Y2675000D02*
X2690000D01*
Y-2680000D01*
X-2605000D01*
Y2675000D01*
G54D38*
X997500Y482500D03*
Y627500D03*
X1132500Y482500D03*
Y627500D03*
G54D29*
X-584000Y2005000D03*
Y1940000D03*
Y1875000D03*
Y1810000D03*
Y1745000D03*
G54D39*
X990000Y555000D03*
X1140000D03*
M02*
